<svg width="236" height="70" viewBox="0 0 236 70" fill="none" xmlns="http://www.w3.org/2000/svg">
<path d="M80.08 32.28C76.6933 32.28 73.8933 31.4933 71.68 29.92C69.4933 28.32 68.3067 25.9867 68.12 22.92H77.56C77.6933 24.5467 78.4133 25.36 79.72 25.36C80.2 25.36 80.6 25.2533 80.92 25.04C81.2667 24.8 81.44 24.44 81.44 23.96C81.44 23.2933 81.08 22.76 80.36 22.36C79.64 21.9333 78.52 21.4533 77 20.92C75.1867 20.28 73.68 19.6533 72.48 19.04C71.3067 18.4267 70.2933 17.5333 69.44 16.36C68.5867 15.1867 68.1733 13.68 68.2 11.84C68.2 10 68.6667 8.44 69.6 7.16C70.56 5.85333 71.8533 4.86667 73.48 4.2C75.1333 3.53333 76.9867 3.2 79.04 3.2C82.5067 3.2 85.2533 4 87.28 5.6C89.3333 7.2 90.4133 9.45333 90.52 12.36H80.96C80.9333 11.56 80.7333 10.9867 80.36 10.64C79.9867 10.2933 79.5333 10.12 79 10.12C78.6267 10.12 78.32 10.2533 78.08 10.52C77.84 10.76 77.72 11.1067 77.72 11.56C77.72 12.2 78.0667 12.7333 78.76 13.16C79.48 13.56 80.6133 14.0533 82.16 14.64C83.9467 15.3067 85.4133 15.9467 86.56 16.56C87.7333 17.1733 88.7467 18.0267 89.6 19.12C90.4533 20.2133 90.88 21.5867 90.88 23.24C90.88 24.9733 90.4533 26.5333 89.6 27.92C88.7467 29.28 87.5067 30.3467 85.88 31.12C84.2533 31.8933 82.32 32.28 80.08 32.28ZM107.8 32.28C105.133 32.28 102.68 31.6533 100.44 30.4C98.2267 29.1467 96.4667 27.4133 95.16 25.2C93.8533 22.9867 93.2 20.4933 93.2 17.72C93.2 14.9467 93.8533 12.4533 95.16 10.24C96.4667 8.02667 98.2267 6.30667 100.44 5.08C102.68 3.82667 105.133 3.2 107.8 3.2C110.467 3.2 112.907 3.82667 115.12 5.08C117.333 6.30667 119.08 8.02667 120.36 10.24C121.667 12.4533 122.32 14.9467 122.32 17.72C122.32 20.4933 121.667 22.9867 120.36 25.2C119.08 27.4133 117.32 29.1467 115.08 30.4C112.867 31.6533 110.44 32.28 107.8 32.28ZM107.8 24C109.56 24 110.92 23.44 111.88 22.32C112.84 21.1733 113.32 19.64 113.32 17.72C113.32 15.7733 112.84 14.24 111.88 13.12C110.92 11.9733 109.56 11.4 107.8 11.4C106.013 11.4 104.64 11.9733 103.68 13.12C102.72 14.24 102.24 15.7733 102.24 17.72C102.24 19.64 102.72 21.1733 103.68 22.32C104.64 23.44 106.013 24 107.8 24ZM136.603 32.28C133.217 32.28 130.417 31.4933 128.203 29.92C126.017 28.32 124.83 25.9867 124.643 22.92H134.083C134.217 24.5467 134.937 25.36 136.243 25.36C136.723 25.36 137.123 25.2533 137.443 25.04C137.79 24.8 137.963 24.44 137.963 23.96C137.963 23.2933 137.603 22.76 136.883 22.36C136.163 21.9333 135.043 21.4533 133.523 20.92C131.71 20.28 130.203 19.6533 129.003 19.04C127.83 18.4267 126.817 17.5333 125.963 16.36C125.11 15.1867 124.697 13.68 124.723 11.84C124.723 10 125.19 8.44 126.123 7.16C127.083 5.85333 128.377 4.86667 130.003 4.2C131.657 3.53333 133.51 3.2 135.563 3.2C139.03 3.2 141.777 4 143.803 5.6C145.857 7.2 146.937 9.45333 147.043 12.36H137.483C137.457 11.56 137.257 10.9867 136.883 10.64C136.51 10.2933 136.057 10.12 135.523 10.12C135.15 10.12 134.843 10.2533 134.603 10.52C134.363 10.76 134.243 11.1067 134.243 11.56C134.243 12.2 134.59 12.7333 135.283 13.16C136.003 13.56 137.137 14.0533 138.683 14.64C140.47 15.3067 141.937 15.9467 143.083 16.56C144.257 17.1733 145.27 18.0267 146.123 19.12C146.977 20.2133 147.403 21.5867 147.403 23.24C147.403 24.9733 146.977 26.5333 146.123 27.92C145.27 29.28 144.03 30.3467 142.403 31.12C140.777 31.8933 138.843 32.28 136.603 32.28Z" fill="#FB8500"/>
<path d="M83.24 67L77.92 56.84H77.88V67H69V38.68H82.2C84.4933 38.68 86.4533 39.0933 88.08 39.92C89.7067 40.72 90.92 41.8267 91.72 43.24C92.5467 44.6267 92.96 46.2 92.96 47.96C92.96 49.8533 92.4267 51.5333 91.36 53C90.32 54.4667 88.8133 55.52 86.84 56.16L93 67H83.24ZM77.88 50.92H81.4C82.2533 50.92 82.8933 50.7333 83.32 50.36C83.7467 49.96 83.96 49.3467 83.96 48.52C83.96 47.7733 83.7333 47.1867 83.28 46.76C82.8533 46.3333 82.2267 46.12 81.4 46.12H77.88V50.92ZM104.677 38.68V67H95.7969V38.68H104.677ZM122.488 67.28C119.821 67.28 117.368 66.6533 115.128 65.4C112.914 64.1467 111.154 62.4133 109.848 60.2C108.541 57.9867 107.888 55.4933 107.888 52.72C107.888 49.9467 108.541 47.4533 109.848 45.24C111.154 43.0267 112.914 41.3067 115.128 40.08C117.368 38.8267 119.821 38.2 122.488 38.2C125.154 38.2 127.594 38.8267 129.808 40.08C132.021 41.3067 133.768 43.0267 135.048 45.24C136.354 47.4533 137.008 49.9467 137.008 52.72C137.008 55.4933 136.354 57.9867 135.048 60.2C133.768 62.4133 132.008 64.1467 129.768 65.4C127.554 66.6533 125.128 67.28 122.488 67.28ZM122.488 59C124.248 59 125.608 58.44 126.568 57.32C127.528 56.1733 128.008 54.64 128.008 52.72C128.008 50.7733 127.528 49.24 126.568 48.12C125.608 46.9733 124.248 46.4 122.488 46.4C120.701 46.4 119.328 46.9733 118.368 48.12C117.408 49.24 116.928 50.7733 116.928 52.72C116.928 54.64 117.408 56.1733 118.368 57.32C119.328 58.44 120.701 59 122.488 59ZM155.688 38.68V54.64C155.688 55.9467 155.968 56.9867 156.528 57.76C157.114 58.5067 158.048 58.88 159.328 58.88C160.608 58.88 161.554 58.5067 162.168 57.76C162.781 56.9867 163.088 55.9467 163.088 54.64V38.68H171.928V54.64C171.928 57.3333 171.368 59.64 170.248 61.56C169.128 63.4533 167.594 64.88 165.648 65.84C163.701 66.8 161.528 67.28 159.128 67.28C156.728 67.28 154.594 66.8 152.728 65.84C150.888 64.88 149.448 63.4533 148.408 61.56C147.368 59.6667 146.848 57.36 146.848 54.64V38.68H155.688ZM202.918 67H194.038L184.638 52.76V67H175.758V38.68H184.638L194.038 53.16V38.68H202.918V67ZM225.09 62.72H215.65L214.25 67H204.93L215.29 38.68H225.53L235.85 67H226.49L225.09 62.72ZM222.93 56.04L220.37 48.16L217.81 56.04H222.93Z" fill="white"/>
<rect y="4" width="62" height="62" rx="4" fill="white"/>
<path fill-rule="evenodd" clip-rule="evenodd" d="M0 15.8829V62C0 64.2091 1.79086 66 4 66H55.2249C53.1399 65.0162 51.302 63.9115 49.8768 62.7669C48.738 61.8533 47.352 60.3631 46.4781 59.1302C44.1034 55.7595 41.3845 53.5509 37.0413 51.4576C32.8658 49.4352 28.4872 48.1136 18.8473 45.9581C10.7788 44.1486 7.96276 43.3326 5.34093 42.0553C3.79607 41.3013 2.93096 40.707 2.01288 39.7846C1.40376 39.1637 1.17424 38.8443 0.865271 38.2323C0.494507 37.4695 0.485679 37.4429 0.485679 36.5647C0.494507 35.7753 0.52099 35.6156 0.732855 35.1899C1.37728 33.8771 2.56019 32.8748 4.74947 31.7749C6.64743 30.8258 9.27809 29.8944 14.8307 28.2269C20.3657 26.5682 22.5638 25.7432 23.6673 24.9272C24.3382 24.4305 24.3558 24.3506 23.8703 23.8273C22.3519 22.1952 18.2117 20.6873 7.63613 17.9287C4.49927 17.1098 2.01355 16.4464 0 15.8829ZM62 41.9659C60.749 41.7082 59.3792 41.4293 57.8659 41.1239C48.8792 39.3144 47.9082 39.1016 45.5071 38.4895C42.488 37.7267 40.2722 36.8663 39.6631 36.2277C39.5042 36.068 39.3188 35.793 39.2482 35.6245C39.1334 35.3407 39.1334 35.2786 39.257 35.0213C39.6808 34.1343 41.614 33.3272 46.5752 31.9523C51.916 30.4621 53.8139 29.7436 55.2793 28.6349C56.6741 27.5793 57.1685 26.1247 56.63 24.6522C55.7031 22.142 52.2161 20.1995 44.845 18.0706C40.4929 16.82 36.4675 15.9063 25.6005 13.7066C17.3731 12.039 14.9543 11.5245 12.4472 10.9036C8.20993 9.85696 5.88824 8.96995 5.44686 8.23374C4.89954 7.29351 5.747 6.34441 8.14814 5.20017C8.99817 4.79487 10.0482 4.39252 11.2707 4H58C60.2091 4 62 5.79086 62 8V41.9659Z" fill="#FB8500"/>
</svg>
