<svg width="84" height="80" viewBox="0 0 84 80" fill="none" xmlns="http://www.w3.org/2000/svg">
<path d="M83.3221 63.4583C83.3221 66.4875 81.6346 72.3208 77.8429 75.525C77.0846 76.1083 76.3263 75.7792 76.6596 74.9292C77.7638 72.2292 80.2888 65.9833 79.1055 64.5458C78.268 63.4542 74.8096 63.5375 71.8596 63.7875C70.5138 63.9583 69.3305 64.0375 68.4138 64.225C67.5638 64.2917 67.393 63.5458 68.243 62.9625C69.3503 62.1816 70.5736 61.5798 71.8679 61.1792C76.6596 59.7458 82.1971 60.6083 82.9929 61.525C83.1429 61.7 83.3221 62.1958 83.3221 63.4583ZM75.3138 68.8458C74.2182 69.6907 73.0639 70.4565 71.8596 71.1375C63.018 76.45 51.5638 79.2333 41.618 79.2333C25.6055 79.2333 11.2846 73.3292 0.417955 63.45C-0.515378 62.6917 0.255455 61.5917 1.34712 62.1875C13.0555 69.0208 27.5471 73.1542 42.5471 73.1542C51.9888 73.1542 62.1638 71.3875 71.8596 67.5875C72.5388 67.3333 73.2971 66.9875 73.9596 66.7458C75.4888 66.0583 76.8346 67.7542 75.3138 68.8458ZM49.6055 22.8875C49.6055 18.55 49.7805 15.9958 48.343 13.8042C47.068 12 44.8721 10.9167 41.8055 11.0875C38.4805 11.2708 34.9096 13.45 34.0013 17.4458C33.8221 18.3625 33.2888 19.2625 32.1805 19.4583L22.0346 18.1667C21.3096 18 20.2055 17.4458 20.568 15.9958C22.7471 4.53333 32.543 0.5375 41.8096 0H43.9846C49.068 0 55.6013 1.45417 59.7805 5.26667C64.8513 10 64.3096 16.3583 64.3096 23.2667V39.6292C64.3096 44.5375 66.3013 46.7125 68.3013 49.2708C68.843 50.1833 69.0304 51.2583 68.1179 52C65.4929 54.3403 62.8301 56.6378 60.1305 58.8917C59.4013 59.4458 58.093 59.5042 57.5888 59.0792C54.3805 56.3917 53.5971 54.9 51.6096 52.1708C48.1513 55.8 45.2471 57.8042 41.793 58.8917C39.3641 59.5098 36.8658 59.8123 34.3596 59.7917C25.6513 59.7917 18.7555 54.3625 18.7555 43.625C18.7555 35.0875 23.2971 29.2833 30.0055 26.5375C36.7138 23.7875 46.4638 22.9125 49.6055 22.8958M47.618 44.5292C49.7846 40.8958 49.6055 37.9208 49.6055 31.2583C46.8888 31.2583 44.1638 31.4458 41.8096 32C37.4555 33.2625 33.9971 36 33.9971 41.8125C33.9971 46.3542 36.3638 49.4458 40.3555 49.4458C40.9055 49.4458 41.3888 49.3833 41.8055 49.2583C44.5971 48.4833 46.3388 47.0833 47.618 44.5292Z" fill="#797979"/>
</svg>
