<svg width="64" height="75" viewBox="0 0 64 75" fill="none" xmlns="http://www.w3.org/2000/svg">
<path d="M52.6545 72C48.5712 75.9583 44.1128 75.3333 39.8212 73.4583C35.2795 71.5417 31.1128 71.4583 26.3212 73.4583C20.3212 76.0417 17.1545 75.2917 13.5712 72C-6.76217 51.0417 -3.76217 19.125 19.3212 17.9583C24.9462 18.25 28.8628 21.0417 32.1545 21.2917C37.0712 20.2917 41.7795 17.4167 47.0295 17.7917C53.3212 18.2917 58.0712 20.7917 61.1962 25.2917C48.1962 33.0833 51.2795 50.2083 63.1962 55C60.8212 61.25 57.7378 67.4583 52.6128 72.0417L52.6545 72ZM31.7378 17.7083C31.1128 8.41667 38.6545 0.75 47.3212 0C48.5295 10.75 37.5712 18.75 31.7378 17.7083Z" fill="#797979"/>
</svg>
