<svg width="100" height="57" viewBox="0 0 100 57" fill="none" xmlns="http://www.w3.org/2000/svg">
<path d="M0 0.00416636L8.425 19.125L16.85 0L0 0.00416636ZM8.425 31.6708C11.3333 31.6708 13.7 29.3167 13.7 26.4208C13.7 23.5083 11.3333 21.1625 8.425 21.1625C7.72229 21.1427 7.02274 21.264 6.36773 21.5193C5.71271 21.7745 5.11553 22.1585 4.61149 22.6486C4.10746 23.1386 3.7068 23.7248 3.43321 24.3723C3.15962 25.0199 3.01866 25.7158 3.01866 26.4188C3.01866 27.1217 3.15962 27.8176 3.43321 28.4652C3.7068 29.1127 4.10746 29.6989 4.61149 30.1889C5.11553 30.679 5.71271 31.063 6.36773 31.3182C7.02274 31.5735 7.72229 31.6948 8.425 31.675M3.86667 45.6833C3.86667 49.6708 7.45833 56.1375 17.6792 56.1375C27.9 56.1375 31.4917 51.1875 31.4917 45.6792V0.00833273H22.3708L22.375 47.2667C22.375 49.85 20.2792 52.0167 17.6833 52.0167C16.4394 52.0178 15.2458 51.5252 14.3646 50.6472C13.4834 49.7691 12.9866 48.5773 12.9833 47.3333L12.9792 37.7042H3.86667V45.6833ZM38.4042 55.3125V0.00416636H56.6292C60.15 0.00416636 65.7417 2.89167 65.7417 9.0125V18.4333C65.7417 21.1917 63.325 26.0708 59.7417 26.0708C63.325 26.0708 65.7417 29.1625 65.7417 31.5083V48.0875C65.7417 50.9042 63.4667 55.3083 56.6292 55.3083L38.4042 55.3125ZM52.4875 23.8167C55.8042 23.8167 56.6333 23.2583 56.6333 14.5917C56.6333 5.925 55.8 5.23333 52.4875 5.23333H47.5083V23.8042L52.4875 23.8167ZM56.6333 39.6958C56.6333 31.025 56.6333 28.4875 53.0333 28.4875H47.5083V50.7708L53.0333 50.7833C56.6292 50.7833 56.6292 48.3625 56.6292 39.7M72.375 55.3167H100V37.7083H90.8792L90.8875 47.3333C90.8875 48.5793 90.3925 49.7742 89.5115 50.6553C88.6305 51.5363 87.4355 52.0313 86.1896 52.0313C84.9436 52.0313 83.7487 51.5363 82.8677 50.6553C81.9866 49.7742 81.4917 48.5793 81.4917 47.3333V0.00416636H72.375V55.3167Z" fill="#797979"/>
</svg>
