<svg width="92" height="51" viewBox="0 0 92 51" fill="none" xmlns="http://www.w3.org/2000/svg">
<path d="M27.7184 0.434497C25.6226 0.415001 23.5454 0.828303 21.6166 1.64853C19.6879 2.46877 17.9492 3.67827 16.5095 5.20135H16.5018C16.2988 5.19374 16.0932 5.1912 15.885 5.19374C12.9777 5.20621 10.129 6.01296 7.64686 7.52682C5.16471 9.04067 3.14345 11.2041 1.8015 13.7832C0.628822 16.0677 0.190972 18.5196 0.0539055 21.0173C-0.0679311 23.2598 0.0539055 25.5328 0.0539055 27.7563V49.2757H12.1233C12.1233 49.2757 12.131 38.6759 12.1233 29.5611C12.1195 23.4273 12.0777 17.9599 12.1233 16.8367C12.3366 11.5292 13.7872 8.0607 16.4942 5.2242C25.4759 5.228 31.2898 11.3465 31.6096 21.0896C31.6857 23.3284 31.7086 35.2912 31.7086 35.2912V49.2757H43.7704V30.372C43.7704 24.6609 43.8199 19.7113 43.4201 16.3037C42.3084 6.78523 36.4907 0.434497 27.7184 0.434497ZM59.6624 1.57672L47.6082 1.59194V20.4956C47.6082 26.2105 47.5587 31.1563 47.9585 34.564C49.0703 44.0824 54.888 50.4332 63.6602 50.4332C65.756 50.4527 67.8333 50.0394 69.762 49.2191C71.6907 48.3989 73.4294 47.1894 74.8692 45.6663H74.8768C75.0824 45.6739 75.2905 45.6765 75.5012 45.6739C81.376 45.6739 86.8853 42.312 89.5771 37.0883C90.7536 34.8038 91.1877 32.3481 91.3247 29.8542C91.4466 27.6079 91.3247 25.3348 91.3247 23.1151V1.59194H79.2553C79.2553 1.59194 79.2477 12.1917 79.2553 21.3066C79.2629 27.4403 79.301 32.9078 79.2553 34.0309C79.0421 39.3346 77.5915 42.807 74.8844 45.6435C65.9028 45.6397 60.0889 39.5174 59.7691 29.7781C59.6768 25.041 59.6413 20.303 59.6624 15.5651V1.57672Z" fill="#797979"/>
</svg>
