<svg width="64" height="75" viewBox="0 0 64 75" fill="none" xmlns="http://www.w3.org/2000/svg">
<path d="M23.1526 41.625C23.5693 41.625 33.2359 42.0417 38.9859 40.625H39.0276C45.6526 39 54.8609 34.3333 57.2359 19.0833C57.2359 19.0833 62.5276 0 36.2776 0H13.7359C11.6943 0 9.94425 1.5 9.61092 3.5L0.0275875 64.1667C-0.180746 65.4167 0.819253 66.5833 2.06925 66.5833H16.3609L19.8609 44.4167C20.1109 42.8333 21.4859 41.625 23.1526 41.625Z" fill="#797979"/>
<path d="M60.9026 22.0417C57.5276 37.5834 46.9026 45.7917 29.9859 45.7917H23.8609L19.5693 72.9584C19.4026 74.0417 20.2359 75 21.3193 75H29.2359C30.6526 75 31.9026 73.9584 32.1109 72.5417C32.4443 70.875 34.2776 58.7084 34.6526 56.625C34.8609 55.2084 36.1109 54.1667 37.5276 54.1667H39.3609C51.1109 54.1667 60.3193 49.375 63.0276 35.5834C64.1109 30 63.5276 25.4167 60.9026 22.0417Z" fill="#797979"/>
</svg>
