<svg width="150" height="23" viewBox="0 0 150 23" fill="none" xmlns="http://www.w3.org/2000/svg">
<path d="M123.856 0.712496L124.144 17.55H124L119.125 0.718749H111.106V21.9187H116.406L116.119 4.51249H116.262L121.487 21.9187H129.156V0.718749L123.856 0.712496ZM22.9188 0.712496L18.9125 22.1375H24.7125L27.65 2.65H27.7938L30.6625 22.1375H36.3875L32.45 0.718749L22.9188 0.712496ZM55.3 0.712496L52.65 17.05H52.5063L49.8563 0.718749H41.125L40.6938 22.1375H46.0687L46.2125 2.86875H46.2813L49.8625 22.1375H55.3062L58.8875 2.86875H59.0312L59.175 22.1375H64.55L64.05 0.718749L55.3 0.712496ZM9.8875 16.05C10.0446 16.5605 10.0683 17.1028 9.95625 17.625C9.8125 18.3375 9.3125 19.0562 7.88125 19.0562C6.51875 19.0562 5.73125 18.2687 5.73125 17.1187V15.0437H0V16.6937C0 21.4937 3.79375 22.925 7.8125 22.925C11.675 22.925 14.9 21.5625 15.4 18.05C15.6875 16.1875 15.475 14.975 15.4 14.5437C14.4 10.0312 6.23125 8.7375 5.65625 6.23125C5.58589 5.85324 5.58589 5.4655 5.65625 5.08749C5.8 4.36874 6.30625 3.65 7.59375 3.65C8.88125 3.65 9.59375 4.44375 9.59375 5.5875V6.875H14.9687V5.375C14.9687 0.718748 10.7438 0 7.7375 0C3.9375 0 0.7875 1.2875 0.2125 4.73125C0.0244039 5.67913 0.0500255 6.65702 0.2875 7.59374C1.14375 12.0312 8.8125 13.325 9.8875 16.0437M79.5875 16.0437C79.8 16.5437 79.725 17.1937 79.6562 17.625C79.5125 18.3375 79.0125 19.0562 77.5813 19.0562C76.2188 19.0562 75.4313 18.2687 75.4313 17.1187V15.0437H69.7V16.6937C69.7 21.4187 73.425 22.85 77.4375 22.85C81.3063 22.85 84.4563 21.5625 84.9563 17.9812C85.2438 16.1187 85.0313 14.975 84.9563 14.4687C84.1 10.0312 76 8.66875 75.4313 6.23125C75.3609 5.85324 75.3609 5.4655 75.4313 5.08749C75.575 4.36874 76.075 3.65 77.3687 3.65C78.5812 3.65 79.3688 4.44375 79.3688 5.5875V6.875H84.6687V5.375C84.6687 0.718748 80.5125 0 77.5063 0C73.7125 0 70.6312 1.21875 70.0562 4.73125C69.9125 5.6625 69.9125 6.51874 70.1312 7.59374C70.9875 12.0312 78.5063 13.25 79.5875 16.0437ZM97.6375 18.9125C99.1375 18.9125 99.575 17.9125 99.7125 17.3375C99.7875 17.1187 99.7875 16.7625 99.7875 16.55V0.712496H105.225V16.1125C105.225 16.5438 105.225 17.3312 105.163 17.55C104.8 21.5562 101.65 22.8437 97.7063 22.8437C93.7688 22.8437 90.6187 21.5562 90.2562 17.5437C90.2562 17.3312 90.1875 16.5438 90.1875 16.1125V0.712496H95.625V16.5437C95.625 16.8312 95.625 17.1125 95.7 17.3312C95.7 17.9 96.1375 18.9062 97.6375 18.9062M142.338 18.6937C143.913 18.6937 144.412 17.6937 144.556 17.1125C144.625 16.9 144.625 16.5437 144.625 16.325V13.2437H142.406V10.0937H150V15.825C150 16.2562 150 16.5438 149.931 17.2625C149.569 21.2 146.2 22.5562 142.406 22.5562C138.612 22.5562 135.244 21.2 134.888 17.2562C134.813 16.5437 134.812 16.2562 134.812 15.825V6.8C134.812 6.44375 134.888 5.725 134.888 5.3625C135.388 1.35625 138.612 0.068748 142.406 0.068748C146.2 0.068748 149.5 1.35625 149.925 5.36875C150 6.0125 150 6.8 150 6.8V7.51875H144.625V6.3C144.625 6.3 144.625 5.8 144.556 5.5125C144.481 5.0125 144.056 3.93749 142.406 3.93749C140.831 3.93749 140.406 4.9375 140.256 5.5125C140.187 5.79375 140.188 6.15625 140.188 6.5125V16.325C140.188 16.6125 140.187 16.9 140.256 17.1125C140.256 17.6875 140.831 18.6937 142.338 18.6937Z" fill="#797979"/>
</svg>
