<svg width="84" height="84" viewBox="0 0 84 84" fill="none" xmlns="http://www.w3.org/2000/svg">
<path d="M42 0.333374C47.4717 0.333374 52.8899 1.41111 57.9451 3.50506C63.0004 5.59901 67.5937 8.66815 71.4628 12.5373C75.3319 16.4064 78.401 20.9997 80.495 26.0549C82.5889 31.1101 83.6667 36.5283 83.6667 42C83.6667 53.0507 79.2768 63.6488 71.4628 71.4628C63.6488 79.2768 53.0507 83.6667 42 83.6667C22.8333 83.6667 6.79165 70.8334 1.83331 53.375L17.7916 59.9584C18.3385 62.6274 19.7895 65.026 21.8999 66.7492C24.0102 68.4724 26.6505 69.4146 29.375 69.4167C35.875 69.4167 41.1667 64.125 41.1667 57.625V57.0834L55.3333 46.9584H55.6666C64.3333 46.9584 71.375 39.9167 71.375 31.25C71.375 22.5834 64.3333 15.5417 55.6666 15.5417C47 15.5417 39.9166 22.5834 39.9166 31.25V31.4584L30.0416 45.875L29.375 45.8334C26.9166 45.8334 24.625 46.5834 22.75 47.875L0.333313 38.6667C2.12498 17.2084 20.0416 0.333374 42 0.333374ZM26.5 63.5417C29.8333 64.9167 33.6666 63.375 35.0416 60.0417C36.4166 56.7084 34.8333 52.9167 31.5833 51.5417L26.25 49.3334C28.2916 48.5834 30.5833 48.5417 32.75 49.4584C34.9583 50.3334 36.6667 52.0417 37.5417 54.25C38.4583 56.4167 38.4583 58.8334 37.5417 61C35.75 65.5 30.4583 67.6667 25.9583 65.7917C23.875 64.9167 22.2916 63.3334 21.4166 61.4584L26.5 63.5417ZM66.1666 31.25C66.1666 37.0417 61.4583 41.75 55.6666 41.75C52.8891 41.739 50.2291 40.6279 48.2689 38.66C46.3088 36.692 45.2083 34.0276 45.2083 31.25C45.2028 29.8751 45.4696 28.5127 45.9932 27.2413C46.5168 25.9699 47.287 24.8148 48.2592 23.8426C49.2314 22.8704 50.3866 22.1002 51.6579 21.5766C52.9293 21.0529 54.2917 20.7862 55.6666 20.7917C58.4442 20.7917 61.1086 21.8922 63.0766 23.8523C65.0445 25.8125 66.1556 28.4725 66.1666 31.25ZM47.8333 31.25C47.8333 35.5834 51.3333 39.125 55.7083 39.125C60.0417 39.125 63.5417 35.5834 63.5417 31.25C63.5417 26.9167 60.0417 23.375 55.7083 23.375C51.3333 23.375 47.8333 26.9167 47.8333 31.25Z" fill="#797979"/>
</svg>
