<svg width="83" height="84" viewBox="0 0 83 84" fill="none" xmlns="http://www.w3.org/2000/svg">
<path fill-rule="evenodd" clip-rule="evenodd" d="M80.0958 12.9958C66.3542 6.9125 52.9292 4.97917 41.2042 5.07083C29.475 4.97917 16.0458 6.9125 2.30833 12.9958C0.670833 9.97917 0 8.15417 0 8.15417C15.0208 2.11667 29.0875 0.05 41.2042 0C53.3208 0.05 67.3875 2.11667 82.4083 8.15417C82.4083 8.15417 81.9333 9.6375 80.0958 12.9958ZM52.7417 17.4875L41.2042 83.3333L29.5792 17.475C18.6667 17.4833 15.2042 18.7083 14.7042 23.7042C14.7042 23.7042 7.32917 20.9125 3.6125 15.2458C18.1208 8.4125 32.6958 8.10833 32.6958 8.10833L41.2042 18.6167L49.7 8.10833C49.7 8.10833 64.275 8.41667 78.7833 15.2458C75.0667 20.9125 67.6958 23.7042 67.6958 23.7042C67.1958 18.7083 63.7292 17.4875 52.7375 17.4875" fill="#797979"/>
</svg>
