<svg width="18" height="18" viewBox="0 0 18 18" fill="none" xmlns="http://www.w3.org/2000/svg">
<path d="M6.879 6.5C7.383 5.89 8.146 5.5 9 5.5C9.854 5.5 10.617 5.89 11.121 6.5C11.4528 6.90231 11.6634 7.39068 11.7282 7.90814C11.793 8.4256 11.7093 8.95081 11.4869 9.42251C11.2645 9.89422 10.9126 10.293 10.4722 10.5722C10.0317 10.8515 9.521 10.9998 8.9995 10.9998C8.478 10.9998 7.96725 10.8515 7.52683 10.5722C7.08642 10.293 6.73448 9.89422 6.51209 9.42251C6.2897 8.95081 6.20602 8.4256 6.2708 7.90814C6.33559 7.39068 6.54618 6.90231 6.878 6.5M12.749 8.25C12.749 7.618 12.593 7.022 12.317 6.5H16.5C16.8978 6.5 17.2794 6.65804 17.5607 6.93934C17.842 7.22064 18 7.60218 18 8V8.5C18 10.087 16.794 11.712 14.685 12.284C14.4683 11.8947 14.1514 11.5704 13.7673 11.3446C13.3831 11.1189 12.9456 10.9999 12.5 11H11.55C11.929 10.6493 12.2313 10.2239 12.4379 9.75061C12.6444 9.27732 12.7507 8.76639 12.75 8.25M12.5 12C12.6971 11.9995 12.8924 12.0379 13.0746 12.1131C13.2569 12.1883 13.4224 12.2988 13.5618 12.4382C13.7012 12.5776 13.8117 12.7431 13.8869 12.9254C13.9621 13.1076 14.0005 13.3029 14 13.5V14C14 15.971 12.14 18 9 18C5.86 18 4 15.971 4 14V13.5C3.99947 13.3029 4.03791 13.1076 4.11311 12.9254C4.1883 12.7431 4.29877 12.5776 4.43816 12.4382C4.57756 12.2988 4.74312 12.1883 4.92535 12.1131C5.10758 12.0379 5.30287 11.9995 5.5 12H12.5ZM0 8.5C0 10.087 1.206 11.712 3.315 12.284C3.53173 11.8947 3.84858 11.5704 4.23274 11.3446C4.6169 11.1189 5.05442 10.9999 5.5 11H6.45C6.07097 10.6493 5.76867 10.2239 5.56214 9.75061C5.35561 9.27732 5.24933 8.76639 5.25 8.25C5.25 7.618 5.406 7.022 5.683 6.5H1.5C1.10218 6.5 0.720644 6.65804 0.43934 6.93934C0.158035 7.22064 0 7.60218 0 8V8.5ZM7.75 2.75C7.75 2.02065 7.46027 1.32118 6.94454 0.805456C6.42882 0.289731 5.72935 0 5 0C4.27065 0 3.57118 0.289731 3.05546 0.805456C2.53973 1.32118 2.25 2.02065 2.25 2.75C2.25 3.47935 2.53973 4.17882 3.05546 4.69454C3.57118 5.21027 4.27065 5.5 5 5.5C5.72935 5.5 6.42882 5.21027 6.94454 4.69454C7.46027 4.17882 7.75 3.47935 7.75 2.75ZM15.75 2.75C15.75 2.02065 15.4603 1.32118 14.9445 0.805456C14.4288 0.289731 13.7293 0 13 0C12.2707 0 11.5712 0.289731 11.0555 0.805456C10.5397 1.32118 10.25 2.02065 10.25 2.75C10.25 3.47935 10.5397 4.17882 11.0555 4.69454C11.5712 5.21027 12.2707 5.5 13 5.5C13.7293 5.5 14.4288 5.21027 14.9445 4.69454C15.4603 4.17882 15.75 3.47935 15.75 2.75Z" fill="#FB8500"/>
</svg>
