<svg width="19" height="21" viewBox="0 0 19 21" fill="none" xmlns="http://www.w3.org/2000/svg">
<path d="M15 6C15 6.262 14.9833 6.52 14.95 6.774C16.2606 7.51013 17.2471 8.71141 17.7144 10.1401C18.1817 11.5688 18.0957 13.1209 17.4734 14.4893C16.8511 15.8576 15.7378 16.9425 14.3539 17.5293C12.9699 18.1161 11.4161 18.162 9.99996 17.658V21H7.99996V17.4C6.84715 17.9889 5.52356 18.1523 4.26213 17.8615C3.00071 17.5707 1.88229 16.8442 1.10372 15.81C0.325156 14.7758 -0.0636583 13.5001 0.00570921 12.2074C0.0750767 10.9147 0.59818 9.68797 1.48295 8.743C1.87373 9.81282 2.48843 10.7869 3.28595 11.6L4.71396 10.2C3.61501 9.07824 2.99965 7.57035 2.99995 6C2.99995 4.4087 3.6321 2.88258 4.75731 1.75736C5.88253 0.632141 7.40866 0 8.99996 0C10.5913 0 12.1174 0.632141 13.2426 1.75736C14.3678 2.88258 15 4.4087 15 6Z" fill="#FB8500"/>
</svg>
