<svg width="31" height="27" viewBox="0 0 31 27" fill="none" xmlns="http://www.w3.org/2000/svg">
<rect width="31" height="27" rx="4" fill="#023047"/>
<path fill-rule="evenodd" clip-rule="evenodd" d="M0 5.45457V13.0612C0.311575 12.7281 0.761137 12.4292 1.41127 12.1114C2.25107 11.7028 3.41508 11.3018 5.872 10.5838C8.32111 9.86963 9.29372 9.51445 9.78198 9.1631C10.0788 8.94923 10.0867 8.91486 9.87182 8.68954C9.19997 7.98683 7.36803 7.33759 2.68855 6.14987C1.63906 5.88326 0.754283 5.65495 0 5.45457ZM0 15.3502V23C0 25.2091 1.79086 27 4 27H24.0883C23.0243 26.5396 22.0867 26.0082 21.3791 25.4552C20.8752 25.0618 20.262 24.4202 19.8753 23.8894C18.8245 22.4381 17.6215 21.4872 15.6997 20.5859C13.8521 19.7152 11.9147 19.1461 7.64926 18.2181C4.07912 17.439 2.83308 17.0876 1.67298 16.5377C0.989414 16.2131 0.606619 15.9572 0.200387 15.56C0.120641 15.4809 0.0555989 15.4132 0 15.3502ZM31 17.4085C29.5779 17.0728 27.8611 16.7154 24.9141 16.1367C20.9377 15.3576 20.5081 15.266 19.4456 15.0024C18.1097 14.674 17.1293 14.3035 16.8598 14.0286C16.7895 13.9598 16.7074 13.8414 16.6762 13.7689C16.6254 13.6467 16.6254 13.6199 16.6801 13.5092C16.8676 13.1273 17.723 12.7797 19.9182 12.1878C22.2814 11.5462 23.1212 11.2368 23.7696 10.7595C24.3868 10.305 24.6055 9.67867 24.3672 9.04471C23.9571 7.96392 22.4142 7.12754 19.1526 6.21097C17.227 5.67248 15.4458 5.27912 10.6374 4.33199C6.99695 3.61401 5.92669 3.39251 4.81736 3.12517C2.94245 2.67452 1.91515 2.29262 1.71985 1.97564C1.47767 1.57082 1.85266 1.16218 2.91511 0.66952C3.4055 0.441999 4.04634 0.216641 4.81053 0H27C29.2091 0 31 1.79086 31 4V17.4085Z" fill="#FB8500"/>
</svg>
