<svg width="16" height="20" viewBox="0 0 16 20" fill="none" xmlns="http://www.w3.org/2000/svg">
<path d="M5.5 0C6.88333 0 8.18333 0.262667 9.4 0.788C10.6167 1.31333 11.675 2.02567 12.575 2.925C13.475 3.82433 14.1877 4.88267 14.713 6.1C15.2383 7.31733 15.5007 8.61733 15.5 10C15.4993 11.3827 15.2367 12.6827 14.712 13.9C14.1873 15.1173 13.475 16.1757 12.575 17.075C11.675 17.9743 10.6167 18.687 9.4 19.213C8.18333 19.739 6.88333 20.0013 5.5 20C4.61667 20 3.754 19.8877 2.912 19.663C2.07 19.4383 1.266 19.1007 0.5 18.65C2.05 17.75 3.271 16.5333 4.163 15C5.055 13.4667 5.50067 11.8 5.5 10C5.49933 8.2 5.05333 6.53333 4.162 5C3.27067 3.46667 2.05 2.25 0.5 1.35C1.26667 0.9 2.071 0.562667 2.913 0.338C3.755 0.113333 4.61733 0.000666667 5.5 0Z" fill="#023047"/>
</svg>
