<svg width="436" height="139" viewBox="0 0 436 139" fill="none" xmlns="http://www.w3.org/2000/svg">
<rect width="436" height="139" rx="8" fill="#023047"/>
<path d="M72.0536 68.1194C60.4436 68.1194 50.3048 75.1164 44.6618 81.1028L33.3926 72.6648C31.8273 71.492 29.4903 72.7414 29.8904 74.5376L33.0106 88.5597L29.8891 102.583C29.489 104.379 31.826 105.627 33.3913 104.456L44.6605 96.0178C50.3035 102.003 60.4436 109 72.0536 109C89.7917 109 104.172 92.6477 104.172 88.5597C104.172 84.4716 89.7917 68.1194 72.0536 68.1194ZM83.3357 91.6257C81.6259 91.6257 80.2387 90.2524 80.2387 88.5597C80.2387 86.8657 81.6259 85.4936 83.3357 85.4936C85.0468 85.4936 86.4327 86.8657 86.4327 88.5597C86.4327 90.2524 85.0455 91.6257 83.3357 91.6257Z" fill="#FB8500"/>
<path fill-rule="evenodd" clip-rule="evenodd" d="M97.5306 46.5345C99.6517 48.1993 102.417 49.2867 105.303 49.609C106.391 49.7298 107.17 50.7233 107.156 51.7973V56.0398C107.156 57.2615 106.136 58.2952 104.914 58.1878C101.128 57.8522 97.4232 56.6305 94.2953 54.7241C86.9118 59.3022 76.105 59.3693 68.5201 54.7241C61.1365 59.3022 50.3297 59.3693 42.7448 54.7241C39.6169 56.6708 35.9519 57.8656 32.0857 58.2013C30.864 58.3087 29.8438 57.2749 29.8438 56.0532V51.7302C29.8438 50.6696 30.609 49.7298 31.6695 49.6224C34.5826 49.3136 37.3347 48.253 39.4155 46.6151C41.2681 45.1517 43.9262 44.8429 45.7385 46.3466C50.8801 50.6024 60.1297 50.6159 65.231 46.5748C67.0702 45.1114 69.688 44.8295 71.5003 46.3331C76.6688 50.6159 85.972 50.6159 91.06 46.5345C92.9394 45.0174 95.6378 45.0443 97.5306 46.5345ZM97.5306 27.2018C99.6517 28.8666 102.417 29.9406 105.303 30.2762C106.391 30.3971 107.17 31.3906 107.156 32.4646V36.7071C107.156 37.9288 106.136 38.9625 104.914 38.8551C101.128 38.5195 97.4232 37.2978 94.2953 35.3914C86.9118 39.9694 76.105 40.0366 68.5201 35.3914C61.1365 39.9694 50.3297 40.0366 42.7448 35.3914C39.6169 37.338 35.9519 38.5329 32.0857 38.8686C30.864 38.976 29.8438 37.9422 29.8438 36.7205V32.3975C29.8438 31.3369 30.609 30.3971 31.6695 30.2897C34.5826 29.9809 37.3347 28.9203 39.4155 27.2824C41.2681 25.819 43.9262 25.5102 45.7385 27.0138C50.8801 31.2697 60.1297 31.2832 65.231 27.2421C67.0702 25.7787 69.688 25.4968 71.5003 27.0004C76.6688 31.2832 85.972 31.2832 91.06 27.2018C92.9394 25.6847 95.6378 25.7116 97.5306 27.2018Z" fill="#FB8500"/>
<path d="M119.32 38.92C119.32 36.1467 119.92 33.68 121.12 31.52C122.32 29.3333 123.987 27.64 126.12 26.44C128.28 25.2133 130.72 24.6 133.44 24.6C136.773 24.6 139.627 25.48 142 27.24C144.373 29 145.96 31.4 146.76 34.44H139.24C138.68 33.2667 137.88 32.3733 136.84 31.76C135.827 31.1467 134.667 30.84 133.36 30.84C131.253 30.84 129.547 31.5733 128.24 33.04C126.933 34.5067 126.28 36.4667 126.28 38.92C126.28 41.3733 126.933 43.3333 128.24 44.8C129.547 46.2667 131.253 47 133.36 47C134.667 47 135.827 46.6933 136.84 46.08C137.88 45.4667 138.68 44.5733 139.24 43.4H146.76C145.96 46.44 144.373 48.84 142 50.6C139.627 52.3333 136.773 53.2 133.44 53.2C130.72 53.2 128.28 52.6 126.12 51.4C123.987 50.1733 122.32 48.48 121.12 46.32C119.92 44.16 119.32 41.6933 119.32 38.92ZM164.229 53.28C161.589 53.28 159.162 52.6667 156.949 51.44C154.762 50.2133 153.015 48.5067 151.709 46.32C150.429 44.1067 149.789 41.6267 149.789 38.88C149.789 36.1333 150.429 33.6667 151.709 31.48C153.015 29.2933 154.762 27.5867 156.949 26.36C159.162 25.1333 161.589 24.52 164.229 24.52C166.869 24.52 169.282 25.1333 171.469 26.36C173.682 27.5867 175.415 29.2933 176.669 31.48C177.949 33.6667 178.589 36.1333 178.589 38.88C178.589 41.6267 177.949 44.1067 176.669 46.32C175.389 48.5067 173.655 50.2133 171.469 51.44C169.282 52.6667 166.869 53.28 164.229 53.28ZM164.229 47.04C166.469 47.04 168.255 46.2933 169.589 44.8C170.949 43.3067 171.629 41.3333 171.629 38.88C171.629 36.4 170.949 34.4267 169.589 32.96C168.255 31.4667 166.469 30.72 164.229 30.72C161.962 30.72 160.149 31.4533 158.789 32.92C157.455 34.3867 156.789 36.3733 156.789 38.88C156.789 41.36 157.455 43.3467 158.789 44.84C160.149 46.3067 161.962 47.04 164.229 47.04ZM207.514 53H200.674L189.234 35.68V53H182.394V24.92H189.234L200.674 42.32V24.92H207.514V53ZM236.792 24.92V53H229.952V41.44H219.312V53H212.472V24.92H219.312V35.92H229.952V24.92H236.792ZM248.57 30.4V36.08H257.73V41.36H248.57V47.52H258.93V53H241.73V24.92H258.93V30.4H248.57ZM276.251 47C277.557 47 278.717 46.6933 279.731 46.08C280.771 45.4667 281.571 44.5733 282.131 43.4H289.651C288.931 46.0933 287.584 48.2933 285.611 50C283.664 51.68 281.291 52.7067 278.491 53.08V54.64C279.877 54.64 281.091 55.0133 282.131 55.76C283.171 56.5333 283.691 57.68 283.691 59.2C283.691 60.72 283.144 61.8667 282.051 62.64C280.957 63.44 279.651 63.84 278.131 63.84H271.971V60.08H277.211C277.744 60.08 278.144 60 278.411 59.84C278.677 59.68 278.811 59.4133 278.811 59.04C278.811 58.6667 278.677 58.4 278.411 58.24C278.144 58.1067 277.744 58.04 277.211 58.04H274.371V53.08C271.971 52.8133 269.851 52.0533 268.011 50.8C266.171 49.52 264.744 47.8533 263.731 45.8C262.717 43.7467 262.211 41.4533 262.211 38.92C262.211 36.1467 262.811 33.68 264.011 31.52C265.211 29.3333 266.877 27.64 269.011 26.44C271.171 25.2133 273.611 24.6 276.331 24.6C279.664 24.6 282.517 25.48 284.891 27.24C287.264 29 288.851 31.4 289.651 34.44H282.131C281.571 33.2667 280.771 32.3733 279.731 31.76C278.717 31.1467 277.557 30.84 276.251 30.84C274.144 30.84 272.437 31.5733 271.131 33.04C269.824 34.5067 269.171 36.4667 269.171 38.92C269.171 41.3733 269.824 43.3333 271.131 44.8C272.437 46.2667 274.144 47 276.251 47ZM311.319 48.04H300.839L299.159 53H291.999L302.159 24.92H310.079L320.239 53H312.999L311.319 48.04ZM309.559 42.76L306.079 32.48L302.639 42.76H309.559ZM349.288 48.04H338.808L337.128 53H329.968L340.128 24.92H348.048L358.208 53H350.968L349.288 48.04ZM347.528 42.76L344.048 32.48L340.608 42.76H347.528Z" fill="white"/>
<path d="M133.8 88.28C131.133 88.28 128.68 87.6533 126.44 86.4C124.227 85.1467 122.467 83.4133 121.16 81.2C119.853 78.9867 119.2 76.4933 119.2 73.72C119.2 70.9467 119.853 68.4533 121.16 66.24C122.467 64.0267 124.227 62.3067 126.44 61.08C128.68 59.8267 131.133 59.2 133.8 59.2C136.467 59.2 138.907 59.8267 141.12 61.08C143.333 62.3067 145.08 64.0267 146.36 66.24C147.667 68.4533 148.32 70.9467 148.32 73.72C148.32 76.4933 147.667 78.9867 146.36 81.2C145.08 83.4133 143.32 85.1467 141.08 86.4C138.867 87.6533 136.44 88.28 133.8 88.28ZM133.8 80C135.56 80 136.92 79.44 137.88 78.32C138.84 77.1733 139.32 75.64 139.32 73.72C139.32 71.7733 138.84 70.24 137.88 69.12C136.92 67.9733 135.56 67.4 133.8 67.4C132.013 67.4 130.64 67.9733 129.68 69.12C128.72 70.24 128.24 71.7733 128.24 73.72C128.24 75.64 128.72 77.1733 129.68 78.32C130.64 79.44 132.013 80 133.8 80ZM163.323 59.68C166.283 59.68 168.87 60.28 171.083 61.48C173.323 62.68 175.043 64.3467 176.243 66.48C177.443 68.6133 178.043 71.04 178.043 73.76C178.043 76.4533 177.443 78.88 176.243 81.04C175.043 83.2 173.323 84.9067 171.083 86.16C168.87 87.3867 166.283 88 163.323 88H151.523V59.68H163.323ZM162.523 80.08C164.523 80.08 166.11 79.5333 167.283 78.44C168.457 77.3467 169.043 75.7867 169.043 73.76C169.043 71.7333 168.457 70.1733 167.283 69.08C166.11 67.9867 164.523 67.44 162.523 67.44H160.403V80.08H162.523ZM192.33 88.28C188.943 88.28 186.143 87.4933 183.93 85.92C181.743 84.32 180.557 81.9867 180.37 78.92H189.81C189.943 80.5467 190.663 81.36 191.97 81.36C192.45 81.36 192.85 81.2533 193.17 81.04C193.517 80.8 193.69 80.44 193.69 79.96C193.69 79.2933 193.33 78.76 192.61 78.36C191.89 77.9333 190.77 77.4533 189.25 76.92C187.437 76.28 185.93 75.6533 184.73 75.04C183.557 74.4267 182.543 73.5333 181.69 72.36C180.837 71.1867 180.423 69.68 180.45 67.84C180.45 66 180.917 64.44 181.85 63.16C182.81 61.8533 184.103 60.8667 185.73 60.2C187.383 59.5333 189.237 59.2 191.29 59.2C194.757 59.2 197.503 60 199.53 61.6C201.583 63.2 202.663 65.4533 202.77 68.36H193.21C193.183 67.56 192.983 66.9867 192.61 66.64C192.237 66.2933 191.783 66.12 191.25 66.12C190.877 66.12 190.57 66.2533 190.33 66.52C190.09 66.76 189.97 67.1067 189.97 67.56C189.97 68.2 190.317 68.7333 191.01 69.16C191.73 69.56 192.863 70.0533 194.41 70.64C196.197 71.3067 197.663 71.9467 198.81 72.56C199.983 73.1733 200.997 74.0267 201.85 75.12C202.703 76.2133 203.13 77.5867 203.13 79.24C203.13 80.9733 202.703 82.5333 201.85 83.92C200.997 85.28 199.757 86.3467 198.13 87.12C196.503 87.8933 194.57 88.28 192.33 88.28ZM211.447 67.08V58.76H225.007V88H215.687V67.08H211.447ZM229.103 83.6V76.2L241.023 59.2H250.583V75.92H253.463V83.6H250.583V88H241.623V83.6H229.103ZM242.343 69.32L238.023 75.92H242.343V69.32Z" fill="#FB8500"/>
<path d="M121.592 103.416C121.592 102.328 121.843 101.352 122.344 100.488C122.856 99.624 123.544 98.952 124.408 98.472C125.283 97.9813 126.237 97.736 127.272 97.736C128.456 97.736 129.507 98.0293 130.424 98.616C131.352 99.192 132.024 100.013 132.44 101.08H130.248C129.96 100.493 129.56 100.056 129.048 99.768C128.536 99.48 127.944 99.336 127.272 99.336C126.536 99.336 125.88 99.5013 125.304 99.832C124.728 100.163 124.275 100.637 123.944 101.256C123.624 101.875 123.464 102.595 123.464 103.416C123.464 104.237 123.624 104.957 123.944 105.576C124.275 106.195 124.728 106.675 125.304 107.016C125.88 107.347 126.536 107.512 127.272 107.512C127.944 107.512 128.536 107.368 129.048 107.08C129.56 106.792 129.96 106.355 130.248 105.768H132.44C132.024 106.835 131.352 107.656 130.424 108.232C129.507 108.808 128.456 109.096 127.272 109.096C126.227 109.096 125.272 108.856 124.408 108.376C123.544 107.885 122.856 107.208 122.344 106.344C121.843 105.48 121.592 104.504 121.592 103.416ZM136.399 97.16V109H134.575V97.16H136.399ZM139.722 99.016C139.391 99.016 139.114 98.904 138.89 98.68C138.666 98.456 138.554 98.1787 138.554 97.848C138.554 97.5173 138.666 97.24 138.89 97.016C139.114 96.792 139.391 96.68 139.722 96.68C140.042 96.68 140.314 96.792 140.538 97.016C140.762 97.24 140.874 97.5173 140.874 97.848C140.874 98.1787 140.762 98.456 140.538 98.68C140.314 98.904 140.042 99.016 139.722 99.016ZM140.618 100.184V109H138.794V100.184H140.618ZM142.405 104.552C142.405 103.667 142.586 102.883 142.949 102.2C143.322 101.517 143.823 100.989 144.453 100.616C145.093 100.232 145.802 100.04 146.581 100.04C147.263 100.04 147.866 100.179 148.389 100.456C148.922 100.733 149.333 101.069 149.621 101.464V100.184H151.461V113.192H149.621V107.72C149.333 108.115 148.917 108.451 148.373 108.728C147.829 109.005 147.21 109.144 146.516 109.144C145.759 109.144 145.066 108.952 144.437 108.568C143.818 108.173 143.322 107.629 142.949 106.936C142.586 106.232 142.405 105.437 142.405 104.552ZM149.621 104.584C149.621 103.976 149.493 103.448 149.237 103C148.991 102.552 148.666 102.211 148.261 101.976C147.855 101.741 147.418 101.624 146.949 101.624C146.479 101.624 146.042 101.741 145.637 101.976C145.231 102.2 144.901 102.536 144.645 102.984C144.399 103.421 144.277 103.944 144.277 104.552C144.277 105.16 144.399 105.693 144.645 106.152C144.901 106.611 145.231 106.963 145.637 107.208C146.053 107.443 146.49 107.56 146.949 107.56C147.418 107.56 147.855 107.443 148.261 107.208C148.666 106.973 148.991 106.632 149.237 106.184C149.493 105.725 149.621 105.192 149.621 104.584ZM161.84 100.184V109H160.016V107.96C159.728 108.323 159.35 108.611 158.88 108.824C158.422 109.027 157.931 109.128 157.408 109.128C156.715 109.128 156.091 108.984 155.536 108.696C154.992 108.408 154.56 107.981 154.24 107.416C153.931 106.851 153.776 106.168 153.776 105.368V100.184H155.584V105.096C155.584 105.885 155.782 106.493 156.176 106.92C156.571 107.336 157.11 107.544 157.792 107.544C158.475 107.544 159.014 107.336 159.408 106.92C159.814 106.493 160.016 105.885 160.016 105.096V100.184H161.84ZM172.327 104.376C172.327 104.707 172.306 105.005 172.263 105.272H165.527C165.58 105.976 165.842 106.541 166.311 106.968C166.78 107.395 167.356 107.608 168.039 107.608C169.02 107.608 169.714 107.197 170.119 106.376H172.087C171.82 107.187 171.335 107.853 170.631 108.376C169.938 108.888 169.074 109.144 168.039 109.144C167.196 109.144 166.439 108.957 165.767 108.584C165.106 108.2 164.583 107.667 164.199 106.984C163.826 106.291 163.639 105.491 163.639 104.584C163.639 103.677 163.82 102.883 164.183 102.2C164.556 101.507 165.074 100.973 165.735 100.6C166.407 100.227 167.175 100.04 168.039 100.04C168.871 100.04 169.612 100.221 170.263 100.584C170.914 100.947 171.42 101.459 171.783 102.12C172.146 102.771 172.327 103.523 172.327 104.376ZM170.423 103.8C170.412 103.128 170.172 102.589 169.703 102.184C169.234 101.779 168.652 101.576 167.959 101.576C167.33 101.576 166.791 101.779 166.343 102.184C165.895 102.579 165.628 103.117 165.543 103.8H170.423ZM186.358 104.376C186.358 104.707 186.337 105.005 186.294 105.272H179.558C179.611 105.976 179.873 106.541 180.342 106.968C180.811 107.395 181.387 107.608 182.07 107.608C183.051 107.608 183.745 107.197 184.15 106.376H186.118C185.851 107.187 185.366 107.853 184.662 108.376C183.969 108.888 183.105 109.144 182.07 109.144C181.227 109.144 180.47 108.957 179.798 108.584C179.137 108.2 178.614 107.667 178.23 106.984C177.857 106.291 177.67 105.491 177.67 104.584C177.67 103.677 177.851 102.883 178.214 102.2C178.587 101.507 179.105 100.973 179.766 100.6C180.438 100.227 181.206 100.04 182.07 100.04C182.902 100.04 183.643 100.221 184.294 100.584C184.945 100.947 185.451 101.459 185.814 102.12C186.177 102.771 186.358 103.523 186.358 104.376ZM184.454 103.8C184.443 103.128 184.203 102.589 183.734 102.184C183.265 101.779 182.683 101.576 181.99 101.576C181.361 101.576 180.822 101.779 180.374 102.184C179.926 102.579 179.659 103.117 179.574 103.8H184.454ZM191.701 104.552C191.701 103.667 191.883 102.883 192.245 102.2C192.619 101.517 193.12 100.989 193.749 100.616C194.389 100.232 195.099 100.04 195.877 100.04C196.453 100.04 197.019 100.168 197.573 100.424C198.139 100.669 198.587 101 198.917 101.416V97.16H200.757V109H198.917V107.672C198.619 108.099 198.203 108.451 197.669 108.728C197.147 109.005 196.544 109.144 195.861 109.144C195.093 109.144 194.389 108.952 193.749 108.568C193.12 108.173 192.619 107.629 192.245 106.936C191.883 106.232 191.701 105.437 191.701 104.552ZM198.917 104.584C198.917 103.976 198.789 103.448 198.533 103C198.288 102.552 197.963 102.211 197.557 101.976C197.152 101.741 196.715 101.624 196.245 101.624C195.776 101.624 195.339 101.741 194.933 101.976C194.528 102.2 194.197 102.536 193.941 102.984C193.696 103.421 193.573 103.944 193.573 104.552C193.573 105.16 193.696 105.693 193.941 106.152C194.197 106.611 194.528 106.963 194.933 107.208C195.349 107.443 195.787 107.56 196.245 107.56C196.715 107.56 197.152 107.443 197.557 107.208C197.963 106.973 198.288 106.632 198.533 106.184C198.789 105.725 198.917 105.192 198.917 104.584ZM211.233 104.376C211.233 104.707 211.212 105.005 211.169 105.272H204.433C204.486 105.976 204.748 106.541 205.217 106.968C205.686 107.395 206.262 107.608 206.945 107.608C207.926 107.608 208.62 107.197 209.025 106.376H210.993C210.726 107.187 210.241 107.853 209.537 108.376C208.844 108.888 207.98 109.144 206.945 109.144C206.102 109.144 205.345 108.957 204.673 108.584C204.012 108.2 203.489 107.667 203.105 106.984C202.732 106.291 202.545 105.491 202.545 104.584C202.545 103.677 202.726 102.883 203.089 102.2C203.462 101.507 203.98 100.973 204.641 100.6C205.313 100.227 206.081 100.04 206.945 100.04C207.777 100.04 208.518 100.221 209.169 100.584C209.82 100.947 210.326 101.459 210.689 102.12C211.052 102.771 211.233 103.523 211.233 104.376ZM209.329 103.8C209.318 103.128 209.078 102.589 208.609 102.184C208.14 101.779 207.558 101.576 206.865 101.576C206.236 101.576 205.697 101.779 205.249 102.184C204.801 102.579 204.534 103.117 204.449 103.8H209.329ZM216.228 109.144C215.535 109.144 214.911 109.021 214.356 108.776C213.812 108.52 213.38 108.179 213.06 107.752C212.74 107.315 212.569 106.829 212.548 106.296H214.436C214.468 106.669 214.644 106.984 214.964 107.24C215.295 107.485 215.705 107.608 216.196 107.608C216.708 107.608 217.103 107.512 217.38 107.32C217.668 107.117 217.812 106.861 217.812 106.552C217.812 106.221 217.652 105.976 217.332 105.816C217.023 105.656 216.527 105.48 215.844 105.288C215.183 105.107 214.644 104.931 214.228 104.76C213.812 104.589 213.449 104.328 213.14 103.976C212.841 103.624 212.692 103.16 212.692 102.584C212.692 102.115 212.831 101.688 213.108 101.304C213.385 100.909 213.78 100.6 214.292 100.376C214.815 100.152 215.412 100.04 216.084 100.04C217.087 100.04 217.892 100.296 218.5 100.808C219.119 101.309 219.449 101.997 219.492 102.872H217.668C217.636 102.477 217.476 102.163 217.188 101.928C216.9 101.693 216.511 101.576 216.02 101.576C215.54 101.576 215.172 101.667 214.916 101.848C214.66 102.029 214.532 102.269 214.532 102.568C214.532 102.803 214.617 103 214.788 103.16C214.959 103.32 215.167 103.448 215.412 103.544C215.657 103.629 216.02 103.741 216.5 103.88C217.14 104.051 217.663 104.227 218.068 104.408C218.484 104.579 218.841 104.835 219.14 105.176C219.439 105.517 219.593 105.971 219.604 106.536C219.604 107.037 219.465 107.485 219.188 107.88C218.911 108.275 218.516 108.584 218.004 108.808C217.503 109.032 216.911 109.144 216.228 109.144ZM220.967 104.584C220.967 103.677 221.148 102.883 221.511 102.2C221.884 101.507 222.396 100.973 223.047 100.6C223.698 100.227 224.444 100.04 225.287 100.04C226.354 100.04 227.234 100.296 227.927 100.808C228.631 101.309 229.106 102.029 229.351 102.968H227.383C227.223 102.531 226.967 102.189 226.615 101.944C226.263 101.699 225.82 101.576 225.287 101.576C224.54 101.576 223.943 101.843 223.495 102.376C223.058 102.899 222.839 103.635 222.839 104.584C222.839 105.533 223.058 106.275 223.495 106.808C223.943 107.341 224.54 107.608 225.287 107.608C226.343 107.608 227.042 107.144 227.383 106.216H229.351C229.095 107.112 228.615 107.827 227.911 108.36C227.207 108.883 226.332 109.144 225.287 109.144C224.444 109.144 223.698 108.957 223.047 108.584C222.396 108.2 221.884 107.667 221.511 106.984C221.148 106.291 220.967 105.491 220.967 104.584ZM239.153 100.184V109H237.329V107.96C237.041 108.323 236.662 108.611 236.193 108.824C235.734 109.027 235.243 109.128 234.721 109.128C234.027 109.128 233.403 108.984 232.849 108.696C232.305 108.408 231.873 107.981 231.553 107.416C231.243 106.851 231.089 106.168 231.089 105.368V100.184H232.897V105.096C232.897 105.885 233.094 106.493 233.489 106.92C233.883 107.336 234.422 107.544 235.105 107.544C235.787 107.544 236.326 107.336 236.721 106.92C237.126 106.493 237.329 105.885 237.329 105.096V100.184H239.153ZM243.383 101.496C243.693 101.069 244.114 100.723 244.647 100.456C245.191 100.179 245.794 100.04 246.455 100.04C247.234 100.04 247.938 100.227 248.567 100.6C249.197 100.973 249.693 101.507 250.055 102.2C250.418 102.883 250.599 103.667 250.599 104.552C250.599 105.437 250.418 106.232 250.055 106.936C249.693 107.629 249.191 108.173 248.551 108.568C247.922 108.952 247.223 109.144 246.455 109.144C245.773 109.144 245.165 109.011 244.631 108.744C244.109 108.477 243.693 108.136 243.383 107.72V109H241.559V97.16H243.383V101.496ZM248.743 104.552C248.743 103.944 248.615 103.421 248.359 102.984C248.114 102.536 247.783 102.2 247.367 101.976C246.962 101.741 246.525 101.624 246.055 101.624C245.597 101.624 245.159 101.741 244.743 101.976C244.338 102.211 244.007 102.552 243.751 103C243.506 103.448 243.383 103.976 243.383 104.584C243.383 105.192 243.506 105.725 243.751 106.184C244.007 106.632 244.338 106.973 244.743 107.208C245.159 107.443 245.597 107.56 246.055 107.56C246.525 107.56 246.962 107.443 247.367 107.208C247.783 106.963 248.114 106.611 248.359 106.152C248.615 105.693 248.743 105.16 248.743 104.552ZM254.227 101.464C254.494 101.016 254.846 100.669 255.283 100.424C255.731 100.168 256.259 100.04 256.867 100.04V101.928H256.403C255.688 101.928 255.144 102.109 254.771 102.472C254.408 102.835 254.227 103.464 254.227 104.36V109H252.403V100.184H254.227V101.464ZM257.936 104.552C257.936 103.667 258.117 102.883 258.48 102.2C258.853 101.517 259.354 100.989 259.984 100.616C260.624 100.232 261.328 100.04 262.096 100.04C262.789 100.04 263.392 100.179 263.904 100.456C264.426 100.723 264.842 101.059 265.152 101.464V100.184H266.992V109H265.152V107.688C264.842 108.104 264.421 108.451 263.888 108.728C263.354 109.005 262.746 109.144 262.064 109.144C261.306 109.144 260.613 108.952 259.984 108.568C259.354 108.173 258.853 107.629 258.48 106.936C258.117 106.232 257.936 105.437 257.936 104.552ZM265.152 104.584C265.152 103.976 265.024 103.448 264.768 103C264.522 102.552 264.197 102.211 263.792 101.976C263.386 101.741 262.949 101.624 262.48 101.624C262.01 101.624 261.573 101.741 261.168 101.976C260.762 102.2 260.432 102.536 260.176 102.984C259.93 103.421 259.808 103.944 259.808 104.552C259.808 105.16 259.93 105.693 260.176 106.152C260.432 106.611 260.762 106.963 261.168 107.208C261.584 107.443 262.021 107.56 262.48 107.56C262.949 107.56 263.386 107.443 263.792 107.208C264.197 106.973 264.522 106.632 264.768 106.184C265.024 105.725 265.152 105.192 265.152 104.584ZM284.216 100.04C284.909 100.04 285.528 100.184 286.072 100.472C286.626 100.76 287.058 101.187 287.368 101.752C287.688 102.317 287.848 103 287.848 103.8V109H286.04V104.072C286.04 103.283 285.842 102.68 285.448 102.264C285.053 101.837 284.514 101.624 283.832 101.624C283.149 101.624 282.605 101.837 282.2 102.264C281.805 102.68 281.608 103.283 281.608 104.072V109H279.8V104.072C279.8 103.283 279.602 102.68 279.208 102.264C278.813 101.837 278.274 101.624 277.592 101.624C276.909 101.624 276.365 101.837 275.96 102.264C275.565 102.68 275.368 103.283 275.368 104.072V109H273.544V100.184H275.368V101.192C275.666 100.829 276.045 100.547 276.504 100.344C276.962 100.141 277.453 100.04 277.976 100.04C278.68 100.04 279.309 100.189 279.864 100.488C280.418 100.787 280.845 101.219 281.144 101.784C281.41 101.251 281.826 100.829 282.392 100.52C282.957 100.2 283.565 100.04 284.216 100.04ZM289.561 104.552C289.561 103.667 289.742 102.883 290.105 102.2C290.478 101.517 290.979 100.989 291.609 100.616C292.249 100.232 292.953 100.04 293.721 100.04C294.414 100.04 295.017 100.179 295.529 100.456C296.051 100.723 296.467 101.059 296.777 101.464V100.184H298.617V109H296.777V107.688C296.467 108.104 296.046 108.451 295.513 108.728C294.979 109.005 294.371 109.144 293.689 109.144C292.931 109.144 292.238 108.952 291.609 108.568C290.979 108.173 290.478 107.629 290.105 106.936C289.742 106.232 289.561 105.437 289.561 104.552ZM296.777 104.584C296.777 103.976 296.649 103.448 296.393 103C296.147 102.552 295.822 102.211 295.417 101.976C295.011 101.741 294.574 101.624 294.105 101.624C293.635 101.624 293.198 101.741 292.793 101.976C292.387 102.2 292.057 102.536 291.801 102.984C291.555 103.421 291.433 103.944 291.433 104.552C291.433 105.16 291.555 105.693 291.801 106.152C292.057 106.611 292.387 106.963 292.793 107.208C293.209 107.443 293.646 107.56 294.105 107.56C294.574 107.56 295.011 107.443 295.417 107.208C295.822 106.973 296.147 106.632 296.393 106.184C296.649 105.725 296.777 105.192 296.777 104.584ZM301.941 99.016C301.61 99.016 301.333 98.904 301.109 98.68C300.885 98.456 300.773 98.1787 300.773 97.848C300.773 97.5173 300.885 97.24 301.109 97.016C301.333 96.792 301.61 96.68 301.941 96.68C302.261 96.68 302.533 96.792 302.757 97.016C302.981 97.24 303.093 97.5173 303.093 97.848C303.093 98.1787 302.981 98.456 302.757 98.68C302.533 98.904 302.261 99.016 301.941 99.016ZM302.837 100.184V109H301.013V100.184H302.837ZM308.431 109.144C307.738 109.144 307.114 109.021 306.559 108.776C306.015 108.52 305.583 108.179 305.263 107.752C304.943 107.315 304.773 106.829 304.751 106.296H306.639C306.671 106.669 306.847 106.984 307.167 107.24C307.498 107.485 307.909 107.608 308.399 107.608C308.911 107.608 309.306 107.512 309.583 107.32C309.871 107.117 310.015 106.861 310.015 106.552C310.015 106.221 309.855 105.976 309.535 105.816C309.226 105.656 308.73 105.48 308.047 105.288C307.386 105.107 306.847 104.931 306.431 104.76C306.015 104.589 305.653 104.328 305.343 103.976C305.045 103.624 304.895 103.16 304.895 102.584C304.895 102.115 305.034 101.688 305.311 101.304C305.589 100.909 305.983 100.6 306.495 100.376C307.018 100.152 307.615 100.04 308.287 100.04C309.29 100.04 310.095 100.296 310.703 100.808C311.322 101.309 311.653 101.997 311.695 102.872H309.871C309.839 102.477 309.679 102.163 309.391 101.928C309.103 101.693 308.714 101.576 308.223 101.576C307.743 101.576 307.375 101.667 307.119 101.848C306.863 102.029 306.735 102.269 306.735 102.568C306.735 102.803 306.821 103 306.991 103.16C307.162 103.32 307.37 103.448 307.615 103.544C307.861 103.629 308.223 103.741 308.703 103.88C309.343 104.051 309.866 104.227 310.271 104.408C310.687 104.579 311.045 104.835 311.343 105.176C311.642 105.517 311.797 105.971 311.807 106.536C311.807 107.037 311.669 107.485 311.391 107.88C311.114 108.275 310.719 108.584 310.207 108.808C309.706 109.032 309.114 109.144 308.431 109.144ZM321.134 109.144C320.441 109.144 319.817 109.021 319.262 108.776C318.718 108.52 318.286 108.179 317.966 107.752C317.646 107.315 317.476 106.829 317.454 106.296H319.342C319.374 106.669 319.55 106.984 319.87 107.24C320.201 107.485 320.612 107.608 321.102 107.608C321.614 107.608 322.009 107.512 322.286 107.32C322.574 107.117 322.718 106.861 322.718 106.552C322.718 106.221 322.558 105.976 322.238 105.816C321.929 105.656 321.433 105.48 320.75 105.288C320.089 105.107 319.55 104.931 319.134 104.76C318.718 104.589 318.356 104.328 318.046 103.976C317.748 103.624 317.598 103.16 317.598 102.584C317.598 102.115 317.737 101.688 318.014 101.304C318.292 100.909 318.686 100.6 319.198 100.376C319.721 100.152 320.318 100.04 320.99 100.04C321.993 100.04 322.798 100.296 323.406 100.808C324.025 101.309 324.356 101.997 324.398 102.872H322.574C322.542 102.477 322.382 102.163 322.094 101.928C321.806 101.693 321.417 101.576 320.926 101.576C320.446 101.576 320.078 101.667 319.822 101.848C319.566 102.029 319.438 102.269 319.438 102.568C319.438 102.803 319.524 103 319.694 103.16C319.865 103.32 320.073 103.448 320.318 103.544C320.564 103.629 320.926 103.741 321.406 103.88C322.046 104.051 322.569 104.227 322.974 104.408C323.39 104.579 323.748 104.835 324.046 105.176C324.345 105.517 324.5 105.971 324.51 106.536C324.51 107.037 324.372 107.485 324.094 107.88C323.817 108.275 323.422 108.584 322.91 108.808C322.409 109.032 321.817 109.144 321.134 109.144ZM330.305 109.144C329.473 109.144 328.721 108.957 328.049 108.584C327.377 108.2 326.849 107.667 326.465 106.984C326.081 106.291 325.889 105.491 325.889 104.584C325.889 103.688 326.087 102.893 326.481 102.2C326.876 101.507 327.415 100.973 328.097 100.6C328.78 100.227 329.543 100.04 330.385 100.04C331.228 100.04 331.991 100.227 332.673 100.6C333.356 100.973 333.895 101.507 334.289 102.2C334.684 102.893 334.881 103.688 334.881 104.584C334.881 105.48 334.679 106.275 334.273 106.968C333.868 107.661 333.313 108.2 332.609 108.584C331.916 108.957 331.148 109.144 330.305 109.144ZM330.305 107.56C330.775 107.56 331.212 107.448 331.617 107.224C332.033 107 332.369 106.664 332.625 106.216C332.881 105.768 333.009 105.224 333.009 104.584C333.009 103.944 332.887 103.405 332.641 102.968C332.396 102.52 332.071 102.184 331.665 101.96C331.26 101.736 330.823 101.624 330.353 101.624C329.884 101.624 329.447 101.736 329.041 101.96C328.647 102.184 328.332 102.52 328.097 102.968C327.863 103.405 327.745 103.944 327.745 104.584C327.745 105.533 327.985 106.269 328.465 106.792C328.956 107.304 329.569 107.56 330.305 107.56ZM338.508 101.496C338.818 101.069 339.239 100.723 339.772 100.456C340.316 100.179 340.919 100.04 341.58 100.04C342.359 100.04 343.063 100.227 343.692 100.6C344.322 100.973 344.818 101.507 345.18 102.2C345.543 102.883 345.724 103.667 345.724 104.552C345.724 105.437 345.543 106.232 345.18 106.936C344.818 107.629 344.316 108.173 343.676 108.568C343.047 108.952 342.348 109.144 341.58 109.144C340.898 109.144 340.29 109.011 339.756 108.744C339.234 108.477 338.818 108.136 338.508 107.72V109H336.684V97.16H338.508V101.496ZM343.868 104.552C343.868 103.944 343.74 103.421 343.484 102.984C343.239 102.536 342.908 102.2 342.492 101.976C342.087 101.741 341.65 101.624 341.18 101.624C340.722 101.624 340.284 101.741 339.868 101.976C339.463 102.211 339.132 102.552 338.876 103C338.631 103.448 338.508 103.976 338.508 104.584C338.508 105.192 338.631 105.725 338.876 106.184C339.132 106.632 339.463 106.973 339.868 107.208C340.284 107.443 340.722 107.56 341.18 107.56C341.65 107.56 342.087 107.443 342.492 107.208C342.908 106.963 343.239 106.611 343.484 106.152C343.74 105.693 343.868 105.16 343.868 104.552ZM349.352 101.464C349.619 101.016 349.971 100.669 350.408 100.424C350.856 100.168 351.384 100.04 351.992 100.04V101.928H351.528C350.813 101.928 350.269 102.109 349.896 102.472C349.533 102.835 349.352 103.464 349.352 104.36V109H347.528V100.184H349.352V101.464ZM361.749 104.376C361.749 104.707 361.727 105.005 361.685 105.272H354.949C355.002 105.976 355.263 106.541 355.733 106.968C356.202 107.395 356.778 107.608 357.461 107.608C358.442 107.608 359.135 107.197 359.541 106.376H361.509C361.242 107.187 360.757 107.853 360.053 108.376C359.359 108.888 358.495 109.144 357.461 109.144C356.618 109.144 355.861 108.957 355.189 108.584C354.527 108.2 354.005 107.667 353.621 106.984C353.247 106.291 353.061 105.491 353.061 104.584C353.061 103.677 353.242 102.883 353.605 102.2C353.978 101.507 354.495 100.973 355.157 100.6C355.829 100.227 356.597 100.04 357.461 100.04C358.293 100.04 359.034 100.221 359.685 100.584C360.335 100.947 360.842 101.459 361.205 102.12C361.567 102.771 361.749 103.523 361.749 104.376ZM359.845 103.8C359.834 103.128 359.594 102.589 359.125 102.184C358.655 101.779 358.074 101.576 357.381 101.576C356.751 101.576 356.213 101.779 355.765 102.184C355.317 102.579 355.05 103.117 354.965 103.8H359.845Z" fill="white"/>
<rect x="122" y="117" width="240" height="4" fill="#FB8500"/>
</svg>
