<svg width="436" height="139" viewBox="0 0 436 139" fill="none" xmlns="http://www.w3.org/2000/svg">
<rect width="436" height="139" rx="8" fill="#FB8500"/>
<path fill-rule="evenodd" clip-rule="evenodd" d="M45.9821 50.3038C49.2226 48.5882 52.575 47.2857 56.0391 46.3961C59.5033 45.5066 63.045 45.0618 66.6642 45.0618C68.5704 45.0618 70.4613 45.1889 72.337 45.443C74.2127 45.6972 76.0706 46.0784 77.9107 46.5868C81.0876 47.4763 83.5187 48.0799 85.2037 48.3976C86.8888 48.7153 88.6831 48.8742 90.5868 48.8742H94.1132L95.7335 33.6247H44.2666L45.9821 50.3038ZM50.8429 102.247C48.8732 102.247 47.1741 101.612 45.7458 100.341C44.3174 99.0703 43.5066 97.45 43.3135 95.4803L35.6888 26H104.311L96.6866 95.4803C96.4959 97.45 95.6852 99.0703 94.2543 100.341C92.8234 101.612 91.1243 102.247 89.1571 102.247H75.9349V106.043L84.8373 106.043L70 121L55.1627 106.043H64.0651V102.247H50.8429ZM70.0314 90.089H69.9686C67.0286 90.0804 64.2108 88.8681 62.1313 86.7162C60.0444 84.5566 58.872 81.6276 58.872 78.5735C58.872 70.8965 70 57.9415 70 57.9415C70 57.9415 81.128 70.8965 81.128 78.5735C81.128 81.6276 79.9556 84.5566 77.8687 86.7162C75.7892 88.8681 72.9714 90.0804 70.0314 90.089Z" fill="#023047"/>
<path d="M115.32 38.92C115.32 36.1467 115.92 33.68 117.12 31.52C118.32 29.3333 119.987 27.64 122.12 26.44C124.28 25.2133 126.72 24.6 129.44 24.6C132.773 24.6 135.627 25.48 138 27.24C140.373 29 141.96 31.4 142.76 34.44H135.24C134.68 33.2667 133.88 32.3733 132.84 31.76C131.827 31.1467 130.667 30.84 129.36 30.84C127.253 30.84 125.547 31.5733 124.24 33.04C122.933 34.5067 122.28 36.4667 122.28 38.92C122.28 41.3733 122.933 43.3333 124.24 44.8C125.547 46.2667 127.253 47 129.36 47C130.667 47 131.827 46.6933 132.84 46.08C133.88 45.4667 134.68 44.5733 135.24 43.4H142.76C141.96 46.44 140.373 48.84 138 50.6C135.627 52.3333 132.773 53.2 129.44 53.2C126.72 53.2 124.28 52.6 122.12 51.4C119.987 50.1733 118.32 48.48 117.12 46.32C115.92 44.16 115.32 41.6933 115.32 38.92ZM160.229 53.28C157.589 53.28 155.162 52.6667 152.949 51.44C150.762 50.2133 149.015 48.5067 147.709 46.32C146.429 44.1067 145.789 41.6267 145.789 38.88C145.789 36.1333 146.429 33.6667 147.709 31.48C149.015 29.2933 150.762 27.5867 152.949 26.36C155.162 25.1333 157.589 24.52 160.229 24.52C162.869 24.52 165.282 25.1333 167.469 26.36C169.682 27.5867 171.415 29.2933 172.669 31.48C173.949 33.6667 174.589 36.1333 174.589 38.88C174.589 41.6267 173.949 44.1067 172.669 46.32C171.389 48.5067 169.655 50.2133 167.469 51.44C165.282 52.6667 162.869 53.28 160.229 53.28ZM160.229 47.04C162.469 47.04 164.255 46.2933 165.589 44.8C166.949 43.3067 167.629 41.3333 167.629 38.88C167.629 36.4 166.949 34.4267 165.589 32.96C164.255 31.4667 162.469 30.72 160.229 30.72C157.962 30.72 156.149 31.4533 154.789 32.92C153.455 34.3867 152.789 36.3733 152.789 38.88C152.789 41.36 153.455 43.3467 154.789 44.84C156.149 46.3067 157.962 47.04 160.229 47.04ZM203.514 53H196.674L185.234 35.68V53H178.394V24.92H185.234L196.674 42.32V24.92H203.514V53ZM232.792 24.92V53H225.952V41.44H215.312V53H208.472V24.92H215.312V35.92H225.952V24.92H232.792ZM244.57 30.4V36.08H253.73V41.36H244.57V47.52H254.93V53H237.73V24.92H254.93V30.4H244.57ZM272.251 47C273.557 47 274.717 46.6933 275.731 46.08C276.771 45.4667 277.571 44.5733 278.131 43.4H285.651C284.931 46.0933 283.584 48.2933 281.611 50C279.664 51.68 277.291 52.7067 274.491 53.08V54.64C275.877 54.64 277.091 55.0133 278.131 55.76C279.171 56.5333 279.691 57.68 279.691 59.2C279.691 60.72 279.144 61.8667 278.051 62.64C276.957 63.44 275.651 63.84 274.131 63.84H267.971V60.08H273.211C273.744 60.08 274.144 60 274.411 59.84C274.677 59.68 274.811 59.4133 274.811 59.04C274.811 58.6667 274.677 58.4 274.411 58.24C274.144 58.1067 273.744 58.04 273.211 58.04H270.371V53.08C267.971 52.8133 265.851 52.0533 264.011 50.8C262.171 49.52 260.744 47.8533 259.731 45.8C258.717 43.7467 258.211 41.4533 258.211 38.92C258.211 36.1467 258.811 33.68 260.011 31.52C261.211 29.3333 262.877 27.64 265.011 26.44C267.171 25.2133 269.611 24.6 272.331 24.6C275.664 24.6 278.517 25.48 280.891 27.24C283.264 29 284.851 31.4 285.651 34.44H278.131C277.571 33.2667 276.771 32.3733 275.731 31.76C274.717 31.1467 273.557 30.84 272.251 30.84C270.144 30.84 268.437 31.5733 267.131 33.04C265.824 34.5067 265.171 36.4667 265.171 38.92C265.171 41.3733 265.824 43.3333 267.131 44.8C268.437 46.2667 270.144 47 272.251 47ZM307.319 48.04H296.839L295.159 53H287.999L298.159 24.92H306.079L316.239 53H308.999L307.319 48.04ZM305.559 42.76L302.079 32.48L298.639 42.76H305.559ZM345.288 48.04H334.808L333.128 53H325.968L336.128 24.92H344.048L354.208 53H346.968L345.288 48.04ZM343.528 42.76L340.048 32.48L336.608 42.76H343.528Z" fill="white"/>
<path d="M129.8 88.28C127.133 88.28 124.68 87.6533 122.44 86.4C120.227 85.1467 118.467 83.4133 117.16 81.2C115.853 78.9867 115.2 76.4933 115.2 73.72C115.2 70.9467 115.853 68.4533 117.16 66.24C118.467 64.0267 120.227 62.3067 122.44 61.08C124.68 59.8267 127.133 59.2 129.8 59.2C132.467 59.2 134.907 59.8267 137.12 61.08C139.333 62.3067 141.08 64.0267 142.36 66.24C143.667 68.4533 144.32 70.9467 144.32 73.72C144.32 76.4933 143.667 78.9867 142.36 81.2C141.08 83.4133 139.32 85.1467 137.08 86.4C134.867 87.6533 132.44 88.28 129.8 88.28ZM129.8 80C131.56 80 132.92 79.44 133.88 78.32C134.84 77.1733 135.32 75.64 135.32 73.72C135.32 71.7733 134.84 70.24 133.88 69.12C132.92 67.9733 131.56 67.4 129.8 67.4C128.013 67.4 126.64 67.9733 125.68 69.12C124.72 70.24 124.24 71.7733 124.24 73.72C124.24 75.64 124.72 77.1733 125.68 78.32C126.64 79.44 128.013 80 129.8 80ZM159.323 59.68C162.283 59.68 164.87 60.28 167.083 61.48C169.323 62.68 171.043 64.3467 172.243 66.48C173.443 68.6133 174.043 71.04 174.043 73.76C174.043 76.4533 173.443 78.88 172.243 81.04C171.043 83.2 169.323 84.9067 167.083 86.16C164.87 87.3867 162.283 88 159.323 88H147.523V59.68H159.323ZM158.523 80.08C160.523 80.08 162.11 79.5333 163.283 78.44C164.457 77.3467 165.043 75.7867 165.043 73.76C165.043 71.7333 164.457 70.1733 163.283 69.08C162.11 67.9867 160.523 67.44 158.523 67.44H156.403V80.08H158.523ZM188.33 88.28C184.943 88.28 182.143 87.4933 179.93 85.92C177.743 84.32 176.557 81.9867 176.37 78.92H185.81C185.943 80.5467 186.663 81.36 187.97 81.36C188.45 81.36 188.85 81.2533 189.17 81.04C189.517 80.8 189.69 80.44 189.69 79.96C189.69 79.2933 189.33 78.76 188.61 78.36C187.89 77.9333 186.77 77.4533 185.25 76.92C183.437 76.28 181.93 75.6533 180.73 75.04C179.557 74.4267 178.543 73.5333 177.69 72.36C176.837 71.1867 176.423 69.68 176.45 67.84C176.45 66 176.917 64.44 177.85 63.16C178.81 61.8533 180.103 60.8667 181.73 60.2C183.383 59.5333 185.237 59.2 187.29 59.2C190.757 59.2 193.503 60 195.53 61.6C197.583 63.2 198.663 65.4533 198.77 68.36H189.21C189.183 67.56 188.983 66.9867 188.61 66.64C188.237 66.2933 187.783 66.12 187.25 66.12C186.877 66.12 186.57 66.2533 186.33 66.52C186.09 66.76 185.97 67.1067 185.97 67.56C185.97 68.2 186.317 68.7333 187.01 69.16C187.73 69.56 188.863 70.0533 190.41 70.64C192.197 71.3067 193.663 71.9467 194.81 72.56C195.983 73.1733 196.997 74.0267 197.85 75.12C198.703 76.2133 199.13 77.5867 199.13 79.24C199.13 80.9733 198.703 82.5333 197.85 83.92C196.997 85.28 195.757 86.3467 194.13 87.12C192.503 87.8933 190.57 88.28 188.33 88.28ZM221.647 67.64C221.487 66.84 221.247 66.2533 220.927 65.88C220.634 65.5067 220.167 65.32 219.527 65.32C218.514 65.32 217.834 65.84 217.487 66.88C217.167 67.8933 217.007 69.48 217.007 71.64C217.487 70.8933 218.18 70.3067 219.087 69.88C219.994 69.4533 221.02 69.24 222.167 69.24C224.727 69.24 226.767 70.0267 228.287 71.6C229.834 73.1733 230.607 75.4533 230.607 78.44C230.607 80.44 230.18 82.1867 229.327 83.68C228.5 85.1467 227.314 86.28 225.767 87.08C224.22 87.88 222.394 88.28 220.287 88.28C216.1 88.28 213.194 87 211.567 84.44C209.94 81.8533 209.127 78.24 209.127 73.6C209.127 69.9733 209.5 67.04 210.247 64.8C210.994 62.56 212.167 60.9067 213.767 59.84C215.394 58.7733 217.5 58.24 220.087 58.24C223.26 58.24 225.647 59.1467 227.247 60.96C228.874 62.7733 229.767 65 229.927 67.64H221.647ZM219.967 76.04C219.247 76.04 218.674 76.24 218.247 76.64C217.82 77.04 217.607 77.6 217.607 78.32C217.607 79.12 217.807 79.72 218.207 80.12C218.634 80.4933 219.22 80.68 219.967 80.68C220.714 80.68 221.287 80.4933 221.687 80.12C222.114 79.72 222.327 79.12 222.327 78.32C222.327 77.6 222.114 77.04 221.687 76.64C221.26 76.24 220.687 76.04 219.967 76.04Z" fill="#023047"/>
<path d="M117.592 103.416C117.592 102.328 117.843 101.352 118.344 100.488C118.856 99.624 119.544 98.952 120.408 98.472C121.283 97.9813 122.237 97.736 123.272 97.736C124.456 97.736 125.507 98.0293 126.424 98.616C127.352 99.192 128.024 100.013 128.44 101.08H126.248C125.96 100.493 125.56 100.056 125.048 99.768C124.536 99.48 123.944 99.336 123.272 99.336C122.536 99.336 121.88 99.5013 121.304 99.832C120.728 100.163 120.275 100.637 119.944 101.256C119.624 101.875 119.464 102.595 119.464 103.416C119.464 104.237 119.624 104.957 119.944 105.576C120.275 106.195 120.728 106.675 121.304 107.016C121.88 107.347 122.536 107.512 123.272 107.512C123.944 107.512 124.536 107.368 125.048 107.08C125.56 106.792 125.96 106.355 126.248 105.768H128.44C128.024 106.835 127.352 107.656 126.424 108.232C125.507 108.808 124.456 109.096 123.272 109.096C122.227 109.096 121.272 108.856 120.408 108.376C119.544 107.885 118.856 107.208 118.344 106.344C117.843 105.48 117.592 104.504 117.592 103.416ZM132.399 97.16V109H130.575V97.16H132.399ZM135.722 99.016C135.391 99.016 135.114 98.904 134.89 98.68C134.666 98.456 134.554 98.1787 134.554 97.848C134.554 97.5173 134.666 97.24 134.89 97.016C135.114 96.792 135.391 96.68 135.722 96.68C136.042 96.68 136.314 96.792 136.538 97.016C136.762 97.24 136.874 97.5173 136.874 97.848C136.874 98.1787 136.762 98.456 136.538 98.68C136.314 98.904 136.042 99.016 135.722 99.016ZM136.618 100.184V109H134.794V100.184H136.618ZM138.405 104.552C138.405 103.667 138.586 102.883 138.949 102.2C139.322 101.517 139.823 100.989 140.453 100.616C141.093 100.232 141.802 100.04 142.581 100.04C143.263 100.04 143.866 100.179 144.389 100.456C144.922 100.733 145.333 101.069 145.621 101.464V100.184H147.461V113.192H145.621V107.72C145.333 108.115 144.917 108.451 144.373 108.728C143.829 109.005 143.21 109.144 142.516 109.144C141.759 109.144 141.066 108.952 140.437 108.568C139.818 108.173 139.322 107.629 138.949 106.936C138.586 106.232 138.405 105.437 138.405 104.552ZM145.621 104.584C145.621 103.976 145.493 103.448 145.237 103C144.991 102.552 144.666 102.211 144.261 101.976C143.855 101.741 143.418 101.624 142.949 101.624C142.479 101.624 142.042 101.741 141.637 101.976C141.231 102.2 140.901 102.536 140.645 102.984C140.399 103.421 140.277 103.944 140.277 104.552C140.277 105.16 140.399 105.693 140.645 106.152C140.901 106.611 141.231 106.963 141.637 107.208C142.053 107.443 142.49 107.56 142.949 107.56C143.418 107.56 143.855 107.443 144.261 107.208C144.666 106.973 144.991 106.632 145.237 106.184C145.493 105.725 145.621 105.192 145.621 104.584ZM157.84 100.184V109H156.016V107.96C155.728 108.323 155.35 108.611 154.88 108.824C154.422 109.027 153.931 109.128 153.408 109.128C152.715 109.128 152.091 108.984 151.536 108.696C150.992 108.408 150.56 107.981 150.24 107.416C149.931 106.851 149.776 106.168 149.776 105.368V100.184H151.584V105.096C151.584 105.885 151.782 106.493 152.176 106.92C152.571 107.336 153.11 107.544 153.792 107.544C154.475 107.544 155.014 107.336 155.408 106.92C155.814 106.493 156.016 105.885 156.016 105.096V100.184H157.84ZM168.327 104.376C168.327 104.707 168.306 105.005 168.263 105.272H161.527C161.58 105.976 161.842 106.541 162.311 106.968C162.78 107.395 163.356 107.608 164.039 107.608C165.02 107.608 165.714 107.197 166.119 106.376H168.087C167.82 107.187 167.335 107.853 166.631 108.376C165.938 108.888 165.074 109.144 164.039 109.144C163.196 109.144 162.439 108.957 161.767 108.584C161.106 108.2 160.583 107.667 160.199 106.984C159.826 106.291 159.639 105.491 159.639 104.584C159.639 103.677 159.82 102.883 160.183 102.2C160.556 101.507 161.074 100.973 161.735 100.6C162.407 100.227 163.175 100.04 164.039 100.04C164.871 100.04 165.612 100.221 166.263 100.584C166.914 100.947 167.42 101.459 167.783 102.12C168.146 102.771 168.327 103.523 168.327 104.376ZM166.423 103.8C166.412 103.128 166.172 102.589 165.703 102.184C165.234 101.779 164.652 101.576 163.959 101.576C163.33 101.576 162.791 101.779 162.343 102.184C161.895 102.579 161.628 103.117 161.543 103.8H166.423ZM182.358 104.376C182.358 104.707 182.337 105.005 182.294 105.272H175.558C175.611 105.976 175.873 106.541 176.342 106.968C176.811 107.395 177.387 107.608 178.07 107.608C179.051 107.608 179.745 107.197 180.15 106.376H182.118C181.851 107.187 181.366 107.853 180.662 108.376C179.969 108.888 179.105 109.144 178.07 109.144C177.227 109.144 176.47 108.957 175.798 108.584C175.137 108.2 174.614 107.667 174.23 106.984C173.857 106.291 173.67 105.491 173.67 104.584C173.67 103.677 173.851 102.883 174.214 102.2C174.587 101.507 175.105 100.973 175.766 100.6C176.438 100.227 177.206 100.04 178.07 100.04C178.902 100.04 179.643 100.221 180.294 100.584C180.945 100.947 181.451 101.459 181.814 102.12C182.177 102.771 182.358 103.523 182.358 104.376ZM180.454 103.8C180.443 103.128 180.203 102.589 179.734 102.184C179.265 101.779 178.683 101.576 177.99 101.576C177.361 101.576 176.822 101.779 176.374 102.184C175.926 102.579 175.659 103.117 175.574 103.8H180.454ZM187.701 104.552C187.701 103.667 187.883 102.883 188.245 102.2C188.619 101.517 189.12 100.989 189.749 100.616C190.389 100.232 191.099 100.04 191.877 100.04C192.453 100.04 193.019 100.168 193.573 100.424C194.139 100.669 194.587 101 194.917 101.416V97.16H196.757V109H194.917V107.672C194.619 108.099 194.203 108.451 193.669 108.728C193.147 109.005 192.544 109.144 191.861 109.144C191.093 109.144 190.389 108.952 189.749 108.568C189.12 108.173 188.619 107.629 188.245 106.936C187.883 106.232 187.701 105.437 187.701 104.552ZM194.917 104.584C194.917 103.976 194.789 103.448 194.533 103C194.288 102.552 193.963 102.211 193.557 101.976C193.152 101.741 192.715 101.624 192.245 101.624C191.776 101.624 191.339 101.741 190.933 101.976C190.528 102.2 190.197 102.536 189.941 102.984C189.696 103.421 189.573 103.944 189.573 104.552C189.573 105.16 189.696 105.693 189.941 106.152C190.197 106.611 190.528 106.963 190.933 107.208C191.349 107.443 191.787 107.56 192.245 107.56C192.715 107.56 193.152 107.443 193.557 107.208C193.963 106.973 194.288 106.632 194.533 106.184C194.789 105.725 194.917 105.192 194.917 104.584ZM207.233 104.376C207.233 104.707 207.212 105.005 207.169 105.272H200.433C200.486 105.976 200.748 106.541 201.217 106.968C201.686 107.395 202.262 107.608 202.945 107.608C203.926 107.608 204.62 107.197 205.025 106.376H206.993C206.726 107.187 206.241 107.853 205.537 108.376C204.844 108.888 203.98 109.144 202.945 109.144C202.102 109.144 201.345 108.957 200.673 108.584C200.012 108.2 199.489 107.667 199.105 106.984C198.732 106.291 198.545 105.491 198.545 104.584C198.545 103.677 198.726 102.883 199.089 102.2C199.462 101.507 199.98 100.973 200.641 100.6C201.313 100.227 202.081 100.04 202.945 100.04C203.777 100.04 204.518 100.221 205.169 100.584C205.82 100.947 206.326 101.459 206.689 102.12C207.052 102.771 207.233 103.523 207.233 104.376ZM205.329 103.8C205.318 103.128 205.078 102.589 204.609 102.184C204.14 101.779 203.558 101.576 202.865 101.576C202.236 101.576 201.697 101.779 201.249 102.184C200.801 102.579 200.534 103.117 200.449 103.8H205.329ZM212.228 109.144C211.535 109.144 210.911 109.021 210.356 108.776C209.812 108.52 209.38 108.179 209.06 107.752C208.74 107.315 208.569 106.829 208.548 106.296H210.436C210.468 106.669 210.644 106.984 210.964 107.24C211.295 107.485 211.705 107.608 212.196 107.608C212.708 107.608 213.103 107.512 213.38 107.32C213.668 107.117 213.812 106.861 213.812 106.552C213.812 106.221 213.652 105.976 213.332 105.816C213.023 105.656 212.527 105.48 211.844 105.288C211.183 105.107 210.644 104.931 210.228 104.76C209.812 104.589 209.449 104.328 209.14 103.976C208.841 103.624 208.692 103.16 208.692 102.584C208.692 102.115 208.831 101.688 209.108 101.304C209.385 100.909 209.78 100.6 210.292 100.376C210.815 100.152 211.412 100.04 212.084 100.04C213.087 100.04 213.892 100.296 214.5 100.808C215.119 101.309 215.449 101.997 215.492 102.872H213.668C213.636 102.477 213.476 102.163 213.188 101.928C212.9 101.693 212.511 101.576 212.02 101.576C211.54 101.576 211.172 101.667 210.916 101.848C210.66 102.029 210.532 102.269 210.532 102.568C210.532 102.803 210.617 103 210.788 103.16C210.959 103.32 211.167 103.448 211.412 103.544C211.657 103.629 212.02 103.741 212.5 103.88C213.14 104.051 213.663 104.227 214.068 104.408C214.484 104.579 214.841 104.835 215.14 105.176C215.439 105.517 215.593 105.971 215.604 106.536C215.604 107.037 215.465 107.485 215.188 107.88C214.911 108.275 214.516 108.584 214.004 108.808C213.503 109.032 212.911 109.144 212.228 109.144ZM216.967 104.584C216.967 103.677 217.148 102.883 217.511 102.2C217.884 101.507 218.396 100.973 219.047 100.6C219.698 100.227 220.444 100.04 221.287 100.04C222.354 100.04 223.234 100.296 223.927 100.808C224.631 101.309 225.106 102.029 225.351 102.968H223.383C223.223 102.531 222.967 102.189 222.615 101.944C222.263 101.699 221.82 101.576 221.287 101.576C220.54 101.576 219.943 101.843 219.495 102.376C219.058 102.899 218.839 103.635 218.839 104.584C218.839 105.533 219.058 106.275 219.495 106.808C219.943 107.341 220.54 107.608 221.287 107.608C222.343 107.608 223.042 107.144 223.383 106.216H225.351C225.095 107.112 224.615 107.827 223.911 108.36C223.207 108.883 222.332 109.144 221.287 109.144C220.444 109.144 219.698 108.957 219.047 108.584C218.396 108.2 217.884 107.667 217.511 106.984C217.148 106.291 216.967 105.491 216.967 104.584ZM235.153 100.184V109H233.329V107.96C233.041 108.323 232.662 108.611 232.193 108.824C231.734 109.027 231.243 109.128 230.721 109.128C230.027 109.128 229.403 108.984 228.849 108.696C228.305 108.408 227.873 107.981 227.553 107.416C227.243 106.851 227.089 106.168 227.089 105.368V100.184H228.897V105.096C228.897 105.885 229.094 106.493 229.489 106.92C229.883 107.336 230.422 107.544 231.105 107.544C231.787 107.544 232.326 107.336 232.721 106.92C233.126 106.493 233.329 105.885 233.329 105.096V100.184H235.153ZM239.383 101.496C239.693 101.069 240.114 100.723 240.647 100.456C241.191 100.179 241.794 100.04 242.455 100.04C243.234 100.04 243.938 100.227 244.567 100.6C245.197 100.973 245.693 101.507 246.055 102.2C246.418 102.883 246.599 103.667 246.599 104.552C246.599 105.437 246.418 106.232 246.055 106.936C245.693 107.629 245.191 108.173 244.551 108.568C243.922 108.952 243.223 109.144 242.455 109.144C241.773 109.144 241.165 109.011 240.631 108.744C240.109 108.477 239.693 108.136 239.383 107.72V109H237.559V97.16H239.383V101.496ZM244.743 104.552C244.743 103.944 244.615 103.421 244.359 102.984C244.114 102.536 243.783 102.2 243.367 101.976C242.962 101.741 242.525 101.624 242.055 101.624C241.597 101.624 241.159 101.741 240.743 101.976C240.338 102.211 240.007 102.552 239.751 103C239.506 103.448 239.383 103.976 239.383 104.584C239.383 105.192 239.506 105.725 239.751 106.184C240.007 106.632 240.338 106.973 240.743 107.208C241.159 107.443 241.597 107.56 242.055 107.56C242.525 107.56 242.962 107.443 243.367 107.208C243.783 106.963 244.114 106.611 244.359 106.152C244.615 105.693 244.743 105.16 244.743 104.552ZM250.227 101.464C250.494 101.016 250.846 100.669 251.283 100.424C251.731 100.168 252.259 100.04 252.867 100.04V101.928H252.403C251.688 101.928 251.144 102.109 250.771 102.472C250.408 102.835 250.227 103.464 250.227 104.36V109H248.403V100.184H250.227V101.464ZM253.936 104.552C253.936 103.667 254.117 102.883 254.48 102.2C254.853 101.517 255.354 100.989 255.984 100.616C256.624 100.232 257.328 100.04 258.096 100.04C258.789 100.04 259.392 100.179 259.904 100.456C260.426 100.723 260.842 101.059 261.152 101.464V100.184H262.992V109H261.152V107.688C260.842 108.104 260.421 108.451 259.888 108.728C259.354 109.005 258.746 109.144 258.064 109.144C257.306 109.144 256.613 108.952 255.984 108.568C255.354 108.173 254.853 107.629 254.48 106.936C254.117 106.232 253.936 105.437 253.936 104.552ZM261.152 104.584C261.152 103.976 261.024 103.448 260.768 103C260.522 102.552 260.197 102.211 259.792 101.976C259.386 101.741 258.949 101.624 258.48 101.624C258.01 101.624 257.573 101.741 257.168 101.976C256.762 102.2 256.432 102.536 256.176 102.984C255.93 103.421 255.808 103.944 255.808 104.552C255.808 105.16 255.93 105.693 256.176 106.152C256.432 106.611 256.762 106.963 257.168 107.208C257.584 107.443 258.021 107.56 258.48 107.56C258.949 107.56 259.386 107.443 259.792 107.208C260.197 106.973 260.522 106.632 260.768 106.184C261.024 105.725 261.152 105.192 261.152 104.584ZM280.216 100.04C280.909 100.04 281.528 100.184 282.072 100.472C282.626 100.76 283.058 101.187 283.368 101.752C283.688 102.317 283.848 103 283.848 103.8V109H282.04V104.072C282.04 103.283 281.842 102.68 281.448 102.264C281.053 101.837 280.514 101.624 279.832 101.624C279.149 101.624 278.605 101.837 278.2 102.264C277.805 102.68 277.608 103.283 277.608 104.072V109H275.8V104.072C275.8 103.283 275.602 102.68 275.208 102.264C274.813 101.837 274.274 101.624 273.592 101.624C272.909 101.624 272.365 101.837 271.96 102.264C271.565 102.68 271.368 103.283 271.368 104.072V109H269.544V100.184H271.368V101.192C271.666 100.829 272.045 100.547 272.504 100.344C272.962 100.141 273.453 100.04 273.976 100.04C274.68 100.04 275.309 100.189 275.864 100.488C276.418 100.787 276.845 101.219 277.144 101.784C277.41 101.251 277.826 100.829 278.392 100.52C278.957 100.2 279.565 100.04 280.216 100.04ZM285.561 104.552C285.561 103.667 285.742 102.883 286.105 102.2C286.478 101.517 286.979 100.989 287.609 100.616C288.249 100.232 288.953 100.04 289.721 100.04C290.414 100.04 291.017 100.179 291.529 100.456C292.051 100.723 292.467 101.059 292.777 101.464V100.184H294.617V109H292.777V107.688C292.467 108.104 292.046 108.451 291.513 108.728C290.979 109.005 290.371 109.144 289.689 109.144C288.931 109.144 288.238 108.952 287.609 108.568C286.979 108.173 286.478 107.629 286.105 106.936C285.742 106.232 285.561 105.437 285.561 104.552ZM292.777 104.584C292.777 103.976 292.649 103.448 292.393 103C292.147 102.552 291.822 102.211 291.417 101.976C291.011 101.741 290.574 101.624 290.105 101.624C289.635 101.624 289.198 101.741 288.793 101.976C288.387 102.2 288.057 102.536 287.801 102.984C287.555 103.421 287.433 103.944 287.433 104.552C287.433 105.16 287.555 105.693 287.801 106.152C288.057 106.611 288.387 106.963 288.793 107.208C289.209 107.443 289.646 107.56 290.105 107.56C290.574 107.56 291.011 107.443 291.417 107.208C291.822 106.973 292.147 106.632 292.393 106.184C292.649 105.725 292.777 105.192 292.777 104.584ZM297.941 99.016C297.61 99.016 297.333 98.904 297.109 98.68C296.885 98.456 296.773 98.1787 296.773 97.848C296.773 97.5173 296.885 97.24 297.109 97.016C297.333 96.792 297.61 96.68 297.941 96.68C298.261 96.68 298.533 96.792 298.757 97.016C298.981 97.24 299.093 97.5173 299.093 97.848C299.093 98.1787 298.981 98.456 298.757 98.68C298.533 98.904 298.261 99.016 297.941 99.016ZM298.837 100.184V109H297.013V100.184H298.837ZM304.431 109.144C303.738 109.144 303.114 109.021 302.559 108.776C302.015 108.52 301.583 108.179 301.263 107.752C300.943 107.315 300.773 106.829 300.751 106.296H302.639C302.671 106.669 302.847 106.984 303.167 107.24C303.498 107.485 303.909 107.608 304.399 107.608C304.911 107.608 305.306 107.512 305.583 107.32C305.871 107.117 306.015 106.861 306.015 106.552C306.015 106.221 305.855 105.976 305.535 105.816C305.226 105.656 304.73 105.48 304.047 105.288C303.386 105.107 302.847 104.931 302.431 104.76C302.015 104.589 301.653 104.328 301.343 103.976C301.045 103.624 300.895 103.16 300.895 102.584C300.895 102.115 301.034 101.688 301.311 101.304C301.589 100.909 301.983 100.6 302.495 100.376C303.018 100.152 303.615 100.04 304.287 100.04C305.29 100.04 306.095 100.296 306.703 100.808C307.322 101.309 307.653 101.997 307.695 102.872H305.871C305.839 102.477 305.679 102.163 305.391 101.928C305.103 101.693 304.714 101.576 304.223 101.576C303.743 101.576 303.375 101.667 303.119 101.848C302.863 102.029 302.735 102.269 302.735 102.568C302.735 102.803 302.821 103 302.991 103.16C303.162 103.32 303.37 103.448 303.615 103.544C303.861 103.629 304.223 103.741 304.703 103.88C305.343 104.051 305.866 104.227 306.271 104.408C306.687 104.579 307.045 104.835 307.343 105.176C307.642 105.517 307.797 105.971 307.807 106.536C307.807 107.037 307.669 107.485 307.391 107.88C307.114 108.275 306.719 108.584 306.207 108.808C305.706 109.032 305.114 109.144 304.431 109.144ZM317.134 109.144C316.441 109.144 315.817 109.021 315.262 108.776C314.718 108.52 314.286 108.179 313.966 107.752C313.646 107.315 313.476 106.829 313.454 106.296H315.342C315.374 106.669 315.55 106.984 315.87 107.24C316.201 107.485 316.612 107.608 317.102 107.608C317.614 107.608 318.009 107.512 318.286 107.32C318.574 107.117 318.718 106.861 318.718 106.552C318.718 106.221 318.558 105.976 318.238 105.816C317.929 105.656 317.433 105.48 316.75 105.288C316.089 105.107 315.55 104.931 315.134 104.76C314.718 104.589 314.356 104.328 314.046 103.976C313.748 103.624 313.598 103.16 313.598 102.584C313.598 102.115 313.737 101.688 314.014 101.304C314.292 100.909 314.686 100.6 315.198 100.376C315.721 100.152 316.318 100.04 316.99 100.04C317.993 100.04 318.798 100.296 319.406 100.808C320.025 101.309 320.356 101.997 320.398 102.872H318.574C318.542 102.477 318.382 102.163 318.094 101.928C317.806 101.693 317.417 101.576 316.926 101.576C316.446 101.576 316.078 101.667 315.822 101.848C315.566 102.029 315.438 102.269 315.438 102.568C315.438 102.803 315.524 103 315.694 103.16C315.865 103.32 316.073 103.448 316.318 103.544C316.564 103.629 316.926 103.741 317.406 103.88C318.046 104.051 318.569 104.227 318.974 104.408C319.39 104.579 319.748 104.835 320.046 105.176C320.345 105.517 320.5 105.971 320.51 106.536C320.51 107.037 320.372 107.485 320.094 107.88C319.817 108.275 319.422 108.584 318.91 108.808C318.409 109.032 317.817 109.144 317.134 109.144ZM326.305 109.144C325.473 109.144 324.721 108.957 324.049 108.584C323.377 108.2 322.849 107.667 322.465 106.984C322.081 106.291 321.889 105.491 321.889 104.584C321.889 103.688 322.087 102.893 322.481 102.2C322.876 101.507 323.415 100.973 324.097 100.6C324.78 100.227 325.543 100.04 326.385 100.04C327.228 100.04 327.991 100.227 328.673 100.6C329.356 100.973 329.895 101.507 330.289 102.2C330.684 102.893 330.881 103.688 330.881 104.584C330.881 105.48 330.679 106.275 330.273 106.968C329.868 107.661 329.313 108.2 328.609 108.584C327.916 108.957 327.148 109.144 326.305 109.144ZM326.305 107.56C326.775 107.56 327.212 107.448 327.617 107.224C328.033 107 328.369 106.664 328.625 106.216C328.881 105.768 329.009 105.224 329.009 104.584C329.009 103.944 328.887 103.405 328.641 102.968C328.396 102.52 328.071 102.184 327.665 101.96C327.26 101.736 326.823 101.624 326.353 101.624C325.884 101.624 325.447 101.736 325.041 101.96C324.647 102.184 324.332 102.52 324.097 102.968C323.863 103.405 323.745 103.944 323.745 104.584C323.745 105.533 323.985 106.269 324.465 106.792C324.956 107.304 325.569 107.56 326.305 107.56ZM334.508 101.496C334.818 101.069 335.239 100.723 335.772 100.456C336.316 100.179 336.919 100.04 337.58 100.04C338.359 100.04 339.063 100.227 339.692 100.6C340.322 100.973 340.818 101.507 341.18 102.2C341.543 102.883 341.724 103.667 341.724 104.552C341.724 105.437 341.543 106.232 341.18 106.936C340.818 107.629 340.316 108.173 339.676 108.568C339.047 108.952 338.348 109.144 337.58 109.144C336.898 109.144 336.29 109.011 335.756 108.744C335.234 108.477 334.818 108.136 334.508 107.72V109H332.684V97.16H334.508V101.496ZM339.868 104.552C339.868 103.944 339.74 103.421 339.484 102.984C339.239 102.536 338.908 102.2 338.492 101.976C338.087 101.741 337.65 101.624 337.18 101.624C336.722 101.624 336.284 101.741 335.868 101.976C335.463 102.211 335.132 102.552 334.876 103C334.631 103.448 334.508 103.976 334.508 104.584C334.508 105.192 334.631 105.725 334.876 106.184C335.132 106.632 335.463 106.973 335.868 107.208C336.284 107.443 336.722 107.56 337.18 107.56C337.65 107.56 338.087 107.443 338.492 107.208C338.908 106.963 339.239 106.611 339.484 106.152C339.74 105.693 339.868 105.16 339.868 104.552ZM345.352 101.464C345.619 101.016 345.971 100.669 346.408 100.424C346.856 100.168 347.384 100.04 347.992 100.04V101.928H347.528C346.813 101.928 346.269 102.109 345.896 102.472C345.533 102.835 345.352 103.464 345.352 104.36V109H343.528V100.184H345.352V101.464ZM357.749 104.376C357.749 104.707 357.727 105.005 357.685 105.272H350.949C351.002 105.976 351.263 106.541 351.733 106.968C352.202 107.395 352.778 107.608 353.461 107.608C354.442 107.608 355.135 107.197 355.541 106.376H357.509C357.242 107.187 356.757 107.853 356.053 108.376C355.359 108.888 354.495 109.144 353.461 109.144C352.618 109.144 351.861 108.957 351.189 108.584C350.527 108.2 350.005 107.667 349.621 106.984C349.247 106.291 349.061 105.491 349.061 104.584C349.061 103.677 349.242 102.883 349.605 102.2C349.978 101.507 350.495 100.973 351.157 100.6C351.829 100.227 352.597 100.04 353.461 100.04C354.293 100.04 355.034 100.221 355.685 100.584C356.335 100.947 356.842 101.459 357.205 102.12C357.567 102.771 357.749 103.523 357.749 104.376ZM355.845 103.8C355.834 103.128 355.594 102.589 355.125 102.184C354.655 101.779 354.074 101.576 353.381 101.576C352.751 101.576 352.213 101.779 351.765 102.184C351.317 102.579 351.05 103.117 350.965 103.8H355.845Z" fill="white"/>
<rect x="118" y="117" width="240" height="4" fill="#023047"/>
</svg>
