<svg width="20" height="10" viewBox="0 0 20 10" fill="none" xmlns="http://www.w3.org/2000/svg">
<path d="M1.0006 10H19.0011C19.1834 9.99962 19.362 9.96605 19.5178 9.90291C19.6736 9.83977 19.8007 9.74944 19.8853 9.64166C19.97 9.53387 20.009 9.41271 19.9982 9.29121C19.9875 9.16971 19.9273 9.05248 19.8241 8.95213L10.8239 0.269981C10.4509 -0.0899938 9.55285 -0.0899938 9.17883 0.269981L0.178579 8.95213C0.0744007 9.05227 0.0133083 9.16956 0.00193898 9.29127C-0.00943031 9.41297 0.0293585 9.53442 0.114091 9.64243C0.198823 9.75045 0.326259 9.84088 0.482552 9.90392C0.638844 9.96696 0.818017 10.0002 1.0006 10Z" fill="#FB8500"/>
</svg>
